<svg width="1350" height="1036" viewBox="0 0 1350 1036" fill="none" xmlns="http://www.w3.org/2000/svg">
<path d="M525 877.435C525 1011.41 406.922 1035.77 272.663 1035.77C218.971 1035.77 171.653 976.661 130.993 965.143C69.9828 947.861 0 957.831 0 877.435C0 804.782 36.979 734.899 106.15 684.476C164.534 641.915 298.06 623.772 359.513 623.772C493.772 623.772 525 743.459 525 877.435Z" fill="#E96600" fill-opacity="0.1"/>
<path d="M1329.5 627.272C1415.5 776.772 1200.16 901.772 1020.76 901.772C841.353 901.772 706 796.388 706 544.143C706 291.898 591.595 94.7719 771 94.7719C849.159 94.7719 1201.25 -63.2113 1283.5 28.772C1390.04 147.927 1133.5 448.502 1329.5 627.272Z" fill="#F7B400" fill-opacity="0.1"/>
<path d="M924 829.483C924 662.845 767.639 421.772 635.77 421.772C503.901 421.772 397 556.858 397 723.496C397 890.133 471.497 900.427 603.366 900.427C735.235 900.427 924 996.12 924 829.483Z" fill="white" fill-opacity="0.6"/>
</svg>
