<svg width="1024" height="733" viewBox="0 0 1024 733" fill="none" xmlns="http://www.w3.org/2000/svg">
<path d="M1159 465.929C1159 638.602 1006.74 670 833.606 670C764.369 670 703.35 593.815 650.919 578.971C572.245 556.698 482 569.547 482 465.929C482 372.292 529.685 282.225 618.883 217.237C694.17 162.384 866.356 139 945.601 139C1118.73 139 1159 293.257 1159 465.929Z" fill="#E96600" fill-opacity="0.1"/>
<path d="M525 576.342C525 722.845 336.164 733 156.759 733C-22.6463 733 -158 671.794 -158 525.291C-158 378.787 -101.555 237 77.8498 237C257.255 237 525 429.839 525 576.342Z" fill="#F7B400" fill-opacity="0.1"/>
<path d="M791 381.927C791 225.828 617.134 0 470.502 0C323.869 0 205 126.543 205 282.642C205 438.741 287.837 448.384 434.469 448.384C581.102 448.384 791 538.026 791 381.927Z" fill="white" fill-opacity="0.6"/>
</svg>
