<svg width="540" height="148" viewBox="0 0 540 148" fill="none" xmlns="http://www.w3.org/2000/svg">
<path d="M159.41 99.68C156.313 98.6987 153.369 97.242 150.578 95.31C147.818 93.3473 145.625 91.0167 144 88.318C142.589 91.0473 140.581 93.3473 137.974 95.218C135.398 97.0887 132.224 98.5607 128.452 99.634C127.287 99.9407 126.275 99.9713 125.416 99.726C124.588 99.4807 124.005 98.8827 123.668 97.932C123.361 97.0427 123.392 96.1993 123.76 95.402C124.159 94.6047 124.849 94.0833 125.83 93.838C128.958 93.0407 131.534 91.998 133.558 90.71C135.582 89.422 137.131 87.8427 138.204 85.972H125.462C124.573 85.972 123.867 85.696 123.346 85.144C122.825 84.5613 122.564 83.8713 122.564 83.074C122.564 82.2767 122.825 81.602 123.346 81.05C123.867 80.498 124.573 80.222 125.462 80.222H140.044C140.105 79.9153 140.136 79.6087 140.136 79.302C140.167 78.9647 140.197 78.6427 140.228 78.336C138.787 78.4587 137.361 78.5507 135.95 78.612C134.539 78.6733 133.19 78.7193 131.902 78.75C130.859 78.7807 130.031 78.5507 129.418 78.06C128.835 77.5387 128.513 76.8027 128.452 75.852C128.421 75.0547 128.697 74.3647 129.28 73.782C129.893 73.1993 130.706 72.908 131.718 72.908C133.19 72.908 134.846 72.862 136.686 72.77C138.526 72.6473 140.412 72.494 142.344 72.31C144.276 72.0953 146.101 71.8653 147.818 71.62C149.566 71.3747 151.069 71.0987 152.326 70.792C152.51 70.7307 152.663 70.7 152.786 70.7V70.608C152.602 70.1787 152.387 69.5807 152.142 68.814C151.897 68.0473 151.697 67.434 151.544 66.974H149.704C149.305 67.6487 148.907 68.2927 148.508 68.906C148.109 69.5193 147.741 70.056 147.404 70.516C146.883 71.252 146.177 71.7273 145.288 71.942C144.399 72.126 143.555 71.9727 142.758 71.482C142.083 71.0527 141.654 70.4547 141.47 69.688C141.317 68.8907 141.47 68.17 141.93 67.526C142.022 67.434 142.099 67.342 142.16 67.25C142.252 67.1273 142.329 67.0047 142.39 66.882C142.267 66.9127 142.145 66.9433 142.022 66.974C141.93 66.974 141.807 66.974 141.654 66.974H138.756C138.848 67.1887 138.94 67.4187 139.032 67.664C139.124 67.8787 139.201 68.0933 139.262 68.308C139.599 69.1667 139.569 69.9793 139.17 70.746C138.771 71.482 138.173 71.9727 137.376 72.218C136.517 72.494 135.689 72.4787 134.892 72.172C134.095 71.8653 133.573 71.2827 133.328 70.424C133.205 69.9947 133.037 69.4273 132.822 68.722C132.607 68.0167 132.423 67.434 132.27 66.974H131.58C131.181 67.618 130.798 68.2313 130.43 68.814C130.062 69.3967 129.725 69.9027 129.418 70.332C128.835 71.0987 128.099 71.5893 127.21 71.804C126.321 71.988 125.508 71.8347 124.772 71.344C124.005 70.8533 123.53 70.2093 123.346 69.412C123.193 68.584 123.361 67.848 123.852 67.204C124.465 66.376 125.094 65.41 125.738 64.306C126.413 63.202 127.041 62.1287 127.624 61.086C128.207 60.0433 128.636 59.2153 128.912 58.602C129.341 57.7433 129.955 57.176 130.752 56.9C131.549 56.624 132.377 56.6547 133.236 56.992C134.125 57.36 134.693 57.9427 134.938 58.74C135.183 59.5067 135.122 60.2887 134.754 61.086C134.723 61.178 134.693 61.27 134.662 61.362C134.631 61.4233 134.585 61.5 134.524 61.592H141.654C142.329 61.592 142.896 61.8067 143.356 62.236C143.847 62.6653 144.153 63.202 144.276 63.846C144.828 62.8953 145.334 61.9447 145.794 60.994C146.285 60.0433 146.683 59.2307 146.99 58.556C147.389 57.6973 148.002 57.13 148.83 56.854C149.658 56.578 150.486 56.6087 151.314 56.946C152.111 57.314 152.663 57.8967 152.97 58.694C153.277 59.4607 153.277 60.1813 152.97 60.856C152.878 61.1013 152.755 61.3467 152.602 61.592H162.584C163.32 61.592 163.949 61.868 164.47 62.42C164.991 62.9413 165.252 63.57 165.252 64.306C165.252 65.042 164.991 65.6707 164.47 66.192C163.949 66.7133 163.32 66.974 162.584 66.974H158.26C158.383 67.1887 158.49 67.4033 158.582 67.618C158.674 67.8327 158.751 68.0167 158.812 68.17C159.211 69.0593 159.211 69.9027 158.812 70.7C158.413 71.4973 157.815 72.034 157.018 72.31C156.957 72.3407 156.895 72.3713 156.834 72.402C156.773 72.402 156.711 72.402 156.65 72.402C156.711 72.5247 156.742 72.6167 156.742 72.678C156.987 73.5673 156.88 74.38 156.42 75.116C155.991 75.8213 155.301 76.2813 154.35 76.496C153.215 76.7107 151.989 76.9253 150.67 77.14C149.382 77.3547 148.033 77.554 146.622 77.738C146.591 78.1367 146.561 78.5507 146.53 78.98C146.499 79.3787 146.453 79.7927 146.392 80.222H162.538C163.427 80.222 164.117 80.498 164.608 81.05C165.129 81.602 165.39 82.2767 165.39 83.074C165.39 83.8713 165.129 84.5613 164.608 85.144C164.117 85.696 163.427 85.972 162.538 85.972H149.474C151.069 87.9347 152.97 89.5293 155.178 90.756C157.417 91.9827 159.809 92.9027 162.354 93.516C163.397 93.7307 164.117 94.298 164.516 95.218C164.945 96.138 164.976 97.0427 164.608 97.932C164.209 98.944 163.504 99.5727 162.492 99.818C161.511 100.094 160.483 100.048 159.41 99.68ZM199.2 99.174C198.464 99.6647 197.667 99.8947 196.808 99.864C195.98 99.864 195.29 99.4807 194.738 98.714C194.309 98.1007 194.155 97.3953 194.278 96.598C194.401 95.8313 194.753 95.2333 195.336 94.804C196.225 94.16 197.191 93.3933 198.234 92.504C199.307 91.584 200.181 90.802 200.856 90.158C201.101 89.9433 201.362 89.7747 201.638 89.652C200.227 89.3147 199.185 88.7013 198.51 87.812C197.866 86.9227 197.544 85.696 197.544 84.132V72.034C197.544 70.2247 197.973 68.86 198.832 67.94C199.721 67.02 201.132 66.468 203.064 66.284C203.187 65.8547 203.309 65.41 203.432 64.95C203.585 64.4593 203.723 64.03 203.846 63.662H198.372C197.759 63.662 197.222 63.5087 196.762 63.202C196.793 63.2633 196.808 63.34 196.808 63.432C196.808 63.524 196.808 63.6007 196.808 63.662C196.808 64.3673 196.578 64.9653 196.118 65.456C195.689 65.9467 195.075 66.192 194.278 66.192H177.948C177.181 66.192 176.568 65.9467 176.108 65.456C175.648 64.9653 175.418 64.3673 175.418 63.662C175.418 62.9567 175.648 62.374 176.108 61.914C176.568 61.4233 177.181 61.178 177.948 61.178H183.238V59.752C183.238 58.7707 183.545 58.004 184.158 57.452C184.771 56.9 185.507 56.624 186.366 56.624C187.255 56.624 188.007 56.9 188.62 57.452C189.233 58.004 189.54 58.7707 189.54 59.752V61.178H194.278C194.891 61.178 195.397 61.316 195.796 61.592C195.765 61.5 195.75 61.408 195.75 61.316C195.75 61.224 195.75 61.132 195.75 61.04C195.75 60.3347 195.98 59.7213 196.44 59.2C196.9 58.6787 197.544 58.418 198.372 58.418H216.082C216.91 58.418 217.554 58.6787 218.014 59.2C218.474 59.7213 218.704 60.3347 218.704 61.04C218.704 61.776 218.474 62.4047 218.014 62.926C217.554 63.4167 216.91 63.662 216.082 63.662H210.378C210.255 64.0607 210.117 64.4747 209.964 64.904C209.841 65.3333 209.703 65.7627 209.55 66.192C212.003 66.2227 213.767 66.698 214.84 67.618C215.944 68.538 216.496 70.01 216.496 72.034V84.132C216.496 85.7267 216.143 86.984 215.438 87.904C214.763 88.824 213.659 89.4373 212.126 89.744L212.54 90.02C213.184 90.6333 214.027 91.354 215.07 92.182C216.143 93.01 217.125 93.746 218.014 94.39C218.627 94.8193 218.995 95.4327 219.118 96.23C219.241 97.0273 219.087 97.7327 218.658 98.346C218.137 99.1127 217.431 99.5113 216.542 99.542C215.683 99.5727 214.901 99.3427 214.196 98.852C213.307 98.1773 212.325 97.38 211.252 96.46C210.179 95.54 209.213 94.62 208.354 93.7C207.863 93.148 207.633 92.5193 207.664 91.814C207.725 91.078 208.001 90.4647 208.492 89.974H204.904C205.425 90.4647 205.732 91.078 205.824 91.814C205.916 92.55 205.701 93.2093 205.18 93.792C204.352 94.7427 203.401 95.6933 202.328 96.644C201.255 97.6253 200.212 98.4687 199.2 99.174ZM176.338 99.128C175.541 98.8827 174.989 98.392 174.682 97.656C174.375 96.92 174.36 96.1687 174.636 95.402C175.372 93.3473 175.939 91.0167 176.338 88.41C176.767 85.8033 176.982 82.752 176.982 79.256V77.186C176.982 75.6527 177.227 74.472 177.718 73.644C178.239 72.7853 179.037 72.2027 180.11 71.896C179.987 71.4667 179.849 71.068 179.696 70.7C179.573 70.332 179.481 70.0713 179.42 69.918C179.205 69.182 179.282 68.5227 179.65 67.94C180.018 67.3267 180.585 66.9127 181.352 66.698C182.057 66.4833 182.778 66.514 183.514 66.79C184.25 67.0353 184.741 67.572 184.986 68.4C185.047 68.676 185.17 69.1667 185.354 69.872C185.569 70.5467 185.737 71.1293 185.86 71.62H187.516C187.608 71.344 187.715 70.9913 187.838 70.562C187.961 70.102 188.083 69.6573 188.206 69.228C188.329 68.768 188.421 68.446 188.482 68.262C188.727 67.4647 189.203 66.9433 189.908 66.698C190.644 66.4527 191.349 66.4373 192.024 66.652C192.791 66.8973 193.327 67.3267 193.634 67.94C193.941 68.5227 193.971 69.1667 193.726 69.872C193.695 70.056 193.619 70.3167 193.496 70.654C193.404 70.9607 193.297 71.2827 193.174 71.62H194.554C195.351 71.62 195.965 71.8653 196.394 72.356C196.854 72.816 197.084 73.3987 197.084 74.104C197.084 74.7787 196.854 75.3767 196.394 75.898C195.965 76.3887 195.351 76.634 194.554 76.634H193.542C193.91 77.186 194.063 77.784 194.002 78.428C193.941 79.0413 193.649 79.5627 193.128 79.992C192.637 80.3907 192.024 80.8353 191.288 81.326C190.552 81.8167 189.816 82.292 189.08 82.752C188.344 83.212 187.7 83.6107 187.148 83.948C186.473 84.3467 185.753 84.4847 184.986 84.362C184.25 84.2087 183.667 83.7793 183.238 83.074C182.931 82.4607 182.839 81.8013 182.962 81.096C183.115 80.3907 183.499 79.8847 184.112 79.578C184.756 79.2407 185.569 78.796 186.55 78.244C187.531 77.6613 188.405 77.1247 189.172 76.634H184.71C183.974 76.634 183.453 76.7873 183.146 77.094C182.87 77.37 182.732 77.876 182.732 78.612V79.348C182.732 82.9973 182.548 86.3247 182.18 89.33C181.812 92.3353 181.229 94.9727 180.432 97.242C180.125 98.0087 179.604 98.5913 178.868 98.99C178.132 99.3887 177.289 99.4347 176.338 99.128ZM186.458 98.944C185.722 99.2813 184.986 99.3427 184.25 99.128C183.514 98.944 182.977 98.4687 182.64 97.702C182.333 97.0887 182.272 96.4447 182.456 95.77C182.64 95.0953 183.039 94.62 183.652 94.344C184.511 93.9453 185.507 93.4393 186.642 92.826C187.777 92.182 188.896 91.5073 190 90.802C191.104 90.0967 192.039 89.4527 192.806 88.87C193.389 88.4407 194.017 88.2873 194.692 88.41C195.367 88.502 195.919 88.8393 196.348 89.422C196.777 89.974 196.961 90.6027 196.9 91.308C196.839 91.9827 196.547 92.55 196.026 93.01C195.29 93.654 194.339 94.3593 193.174 95.126C192.039 95.862 190.859 96.5673 189.632 97.242C188.436 97.9167 187.378 98.484 186.458 98.944ZM186.872 91.262C186.197 91.63 185.477 91.7373 184.71 91.584C183.943 91.4307 183.391 91.0167 183.054 90.342C182.747 89.7287 182.655 89.1 182.778 88.456C182.901 87.812 183.269 87.3367 183.882 87.03C184.526 86.6927 185.308 86.2633 186.228 85.742C187.179 85.19 188.129 84.6073 189.08 83.994C190.031 83.3807 190.828 82.8287 191.472 82.338C192.024 81.9087 192.637 81.74 193.312 81.832C193.987 81.924 194.523 82.2613 194.922 82.844C195.351 83.396 195.52 84.0093 195.428 84.684C195.336 85.3587 195.029 85.9107 194.508 86.34C193.864 86.8307 193.082 87.3827 192.162 87.996C191.242 88.6093 190.307 89.2073 189.356 89.79C188.405 90.3727 187.577 90.8633 186.872 91.262ZM206.008 85.052H208.078C208.998 85.052 209.596 84.9293 209.872 84.684C210.179 84.4387 210.347 83.9173 210.378 83.12H203.708C203.739 83.9173 203.892 84.4387 204.168 84.684C204.475 84.9293 205.088 85.052 206.008 85.052ZM203.708 78.796H210.378V77.186H203.708V78.796ZM203.708 72.862H210.378C210.347 72.126 210.179 71.6507 209.872 71.436C209.565 71.2213 208.967 71.114 208.078 71.114H206.008C205.149 71.114 204.551 71.2213 204.214 71.436C203.907 71.6507 203.739 72.126 203.708 72.862ZM255.182 96.368C254.262 96.5827 253.388 96.46 252.56 96C251.732 95.5093 251.195 94.804 250.95 93.884C250.735 92.964 250.873 92.1053 251.364 91.308C251.855 90.48 252.545 89.9587 253.434 89.744C256.777 88.916 259.138 87.5513 260.518 85.65C261.929 83.7487 262.634 81.3413 262.634 78.428C262.634 75.8213 261.806 73.6287 260.15 71.85C258.525 70.0713 256.209 68.9827 253.204 68.584C252.591 73.828 251.594 78.3207 250.214 82.062C248.865 85.8033 247.27 88.6707 245.43 90.664C243.621 92.6573 241.719 93.654 239.726 93.654C237.978 93.654 236.383 93.1633 234.942 92.182C233.501 91.2007 232.351 89.79 231.492 87.95C230.633 86.0793 230.204 83.81 230.204 81.142C230.204 78.566 230.695 76.1433 231.676 73.874C232.657 71.574 234.053 69.55 235.862 67.802C237.671 66.0233 239.818 64.6433 242.302 63.662C244.817 62.65 247.592 62.144 250.628 62.144C253.357 62.144 255.857 62.5427 258.126 63.34C260.426 64.1067 262.404 65.2107 264.06 66.652C265.747 68.0933 267.05 69.8107 267.97 71.804C268.89 73.7973 269.35 76.0053 269.35 78.428C269.35 83.0587 268.185 86.9227 265.854 90.02C263.523 93.0867 259.966 95.2027 255.182 96.368ZM239.772 86.662C240.293 86.662 240.999 85.9413 241.888 84.5C242.777 83.028 243.667 80.958 244.556 78.29C245.445 75.622 246.12 72.4787 246.58 68.86C244.464 69.3813 242.685 70.2707 241.244 71.528C239.803 72.7547 238.714 74.2113 237.978 75.898C237.273 77.554 236.905 79.2713 236.874 81.05C236.843 83.0127 237.089 84.4387 237.61 85.328C238.162 86.2173 238.883 86.662 239.772 86.662ZM286.002 100.048C285.051 100.232 284.223 100.079 283.518 99.588C282.813 99.128 282.368 98.438 282.184 97.518C282.031 96.69 282.169 95.9387 282.598 95.264C283.058 94.5587 283.748 94.1293 284.668 93.976C285.404 93.8533 286.232 93.7153 287.152 93.562C288.103 93.4087 289.099 93.2553 290.142 93.102V77.232C290.142 74.5947 290.755 72.724 291.982 71.62C293.239 70.516 295.371 69.964 298.376 69.964H299.158V68.906C299.158 67.8327 299.48 67.02 300.124 66.468C300.799 65.8853 301.611 65.594 302.562 65.594C303.513 65.594 304.31 65.8853 304.954 66.468C305.629 67.02 305.966 67.8327 305.966 68.906V69.964H306.702C309.707 69.964 311.839 70.516 313.096 71.62C314.353 72.724 314.982 74.5947 314.982 77.232V79.854C314.982 82.4607 314.369 84.3313 313.142 85.466C311.946 86.57 309.891 87.1527 306.978 87.214C307.407 87.6127 307.852 88.0113 308.312 88.41C308.772 88.778 309.263 89.1307 309.784 89.468C310.428 88.9467 311.195 88.3333 312.084 87.628C312.973 86.9227 313.817 86.248 314.614 85.604C315.442 84.9293 316.071 84.4233 316.5 84.086C317.175 83.5033 317.926 83.2427 318.754 83.304C319.613 83.3347 320.333 83.672 320.916 84.316C321.499 84.96 321.775 85.696 321.744 86.524C321.713 87.352 321.361 88.0267 320.686 88.548C320.165 88.9467 319.398 89.5293 318.386 90.296C317.374 91.032 316.393 91.7373 315.442 92.412C317.19 93.1173 318.907 93.608 320.594 93.884C321.483 94.0373 322.143 94.482 322.572 95.218C323.001 95.954 323.109 96.7667 322.894 97.656C322.679 98.6067 322.143 99.2813 321.284 99.68C320.425 100.109 319.49 100.201 318.478 99.956C315.871 99.2813 313.326 98.3 310.842 97.012C308.389 95.7547 306.165 94.2213 304.172 92.412C304.295 92.596 304.402 92.872 304.494 93.24C304.647 94.0373 304.555 94.7427 304.218 95.356C303.881 95.9693 303.313 96.368 302.516 96.552C301.535 96.7667 300.308 97.0273 298.836 97.334C297.395 97.6713 295.877 98.0087 294.282 98.346C292.687 98.714 291.154 99.036 289.682 99.312C288.21 99.6187 286.983 99.864 286.002 100.048ZM285.404 74.288C284.576 74.6867 283.733 74.794 282.874 74.61C282.015 74.426 281.371 73.9507 280.942 73.184C280.513 72.448 280.421 71.666 280.666 70.838C280.911 69.9793 281.463 69.366 282.322 68.998C284.162 68.17 286.002 67.2193 287.842 66.146C289.713 65.042 291.461 63.9227 293.086 62.788C294.742 61.6227 296.168 60.534 297.364 59.522C298.621 58.4793 299.756 57.7893 300.768 57.452C301.811 57.1147 302.869 57.1147 303.942 57.452C305.046 57.7893 306.257 58.464 307.576 59.476C308.925 60.4573 310.443 61.5 312.13 62.604C313.847 63.708 315.641 64.766 317.512 65.778C319.383 66.7593 321.192 67.6027 322.94 68.308C323.768 68.6147 324.32 69.1973 324.596 70.056C324.903 70.884 324.841 71.7427 324.412 72.632C324.013 73.46 323.369 74.012 322.48 74.288C321.621 74.5333 320.747 74.4567 319.858 74.058C318.539 73.4753 317.144 72.7853 315.672 71.988C314.231 71.16 312.789 70.3013 311.348 69.412C309.907 68.492 308.557 67.572 307.3 66.652C306.073 65.732 305 64.8887 304.08 64.122C303.497 63.6313 303.037 63.386 302.7 63.386C302.363 63.386 301.887 63.616 301.274 64.076C300.385 64.7507 299.296 65.548 298.008 66.468C296.751 67.388 295.386 68.3387 293.914 69.32C292.473 70.2707 291.016 71.1907 289.544 72.08C288.072 72.9387 286.692 73.6747 285.404 74.288ZM296.72 91.906C297.579 91.7527 298.391 91.6147 299.158 91.492C299.925 91.3387 300.615 91.2007 301.228 91.078C301.903 90.9247 302.516 91.0167 303.068 91.354C301.78 90.0353 300.691 88.6553 299.802 87.214H296.72V91.906ZM296.72 82.292H305.644C306.625 82.292 307.3 82.2153 307.668 82.062C308.036 81.9087 308.266 81.4947 308.358 80.82H296.72V82.292ZM296.766 76.45H308.358C308.266 75.806 308.036 75.4073 307.668 75.254C307.3 75.07 306.625 74.978 305.644 74.978H299.48C298.437 74.978 297.732 75.07 297.364 75.254C297.027 75.4073 296.827 75.806 296.766 76.45ZM355.508 100.876C354.527 100.876 353.683 100.539 352.978 99.864C352.273 99.22 351.92 98.3613 351.92 97.288V93.148H336.878C335.989 93.148 335.283 92.872 334.762 92.32C334.271 91.7373 334.026 91.0627 334.026 90.296C334.026 89.4987 334.271 88.824 334.762 88.272C335.283 87.6893 335.989 87.398 336.878 87.398H351.92V85.328H350.264C348.148 85.328 346.4 85.2207 345.02 85.006C343.671 84.7913 342.613 84.408 341.846 83.856C341.079 83.304 340.543 82.522 340.236 81.51C339.929 80.4673 339.776 79.118 339.776 77.462V75.254C339.776 73.046 340.052 71.344 340.604 70.148C341.187 68.9213 342.229 68.078 343.732 67.618C345.265 67.1273 347.443 66.882 350.264 66.882H351.644V59.706C351.644 58.602 351.997 57.728 352.702 57.084C353.407 56.44 354.251 56.118 355.232 56.118C356.183 56.118 356.995 56.4247 357.67 57.038C358.375 57.6207 358.743 58.4333 358.774 59.476H371.654C372.482 59.476 373.126 59.7367 373.586 60.258C374.077 60.7793 374.322 61.408 374.322 62.144C374.322 62.8493 374.077 63.4627 373.586 63.984C373.126 64.5053 372.482 64.766 371.654 64.766H358.82V66.882H361.074C363.926 66.882 366.103 67.1273 367.606 67.618C369.139 68.078 370.182 68.9213 370.734 70.148C371.317 71.344 371.608 73.046 371.608 75.254V76.956C371.608 79.1333 371.317 80.8353 370.734 82.062C370.182 83.2887 369.139 84.1473 367.606 84.638C366.103 85.098 363.926 85.328 361.074 85.328H359.096V87.398H374.414C375.303 87.398 375.993 87.6893 376.484 88.272C377.005 88.824 377.266 89.4987 377.266 90.296C377.266 91.0627 377.005 91.7373 376.484 92.32C375.993 92.872 375.303 93.148 374.414 93.148H359.096V97.288C359.096 98.3613 358.743 99.22 358.038 99.864C357.333 100.539 356.489 100.876 355.508 100.876ZM346.538 73.966H364.846C364.785 73.046 364.539 72.4787 364.11 72.264C363.681 72.0493 362.837 71.942 361.58 71.942H349.804C348.577 71.942 347.734 72.0493 347.274 72.264C346.845 72.4787 346.599 73.046 346.538 73.966ZM349.804 80.268H361.58C362.837 80.268 363.681 80.1607 364.11 79.946C364.539 79.7313 364.785 79.164 364.846 78.244H346.538C346.599 79.164 346.845 79.7313 347.274 79.946C347.734 80.1607 348.577 80.268 349.804 80.268ZM404.314 92.55C403.455 92.55 402.719 92.274 402.106 91.722C401.493 91.17 401.186 90.4187 401.186 89.468V75.346C401.186 73.414 401.447 71.9113 401.968 70.838C402.489 69.7647 403.333 69.0133 404.498 68.584C405.694 68.124 407.273 67.8787 409.236 67.848C408.285 67.1427 407.457 66.5907 406.752 66.192C406.231 65.8853 405.924 65.3947 405.832 64.72C405.771 64.0453 405.924 63.4627 406.292 62.972L406.43 62.834H403.532C402.765 62.834 402.167 62.604 401.738 62.144C401.339 61.684 401.14 61.1167 401.14 60.442C401.14 59.7673 401.339 59.2 401.738 58.74C402.167 58.28 402.765 58.05 403.532 58.05H419.954C421.303 58.05 422.315 58.372 422.99 59.016C423.665 59.66 423.987 60.442 423.956 61.362C423.925 62.282 423.496 63.1407 422.668 63.938C421.993 64.582 421.303 65.2413 420.598 65.916C419.893 66.56 419.172 67.204 418.436 67.848H418.666C420.782 67.848 422.469 68.0627 423.726 68.492C424.983 68.8907 425.888 69.642 426.44 70.746C426.992 71.8193 427.268 73.3527 427.268 75.346V85.65C427.268 88.042 426.793 89.744 425.842 90.756C424.922 91.7373 423.481 92.2893 421.518 92.412C420.383 92.4733 419.479 92.274 418.804 91.814C418.16 91.3233 417.807 90.618 417.746 89.698C417.654 88.8087 417.823 88.0727 418.252 87.49C418.681 86.9073 419.233 86.5547 419.908 86.432C420.46 86.3093 420.782 86.156 420.874 85.972C420.997 85.7573 421.058 85.4047 421.058 84.914V84.684H417.24V88.87C417.24 89.8207 416.933 90.572 416.32 91.124C415.737 91.676 415.017 91.952 414.158 91.952C413.33 91.952 412.609 91.676 411.996 91.124C411.413 90.572 411.122 89.8207 411.122 88.87V84.684H407.396V89.468C407.396 90.4187 407.089 91.17 406.476 91.722C405.893 92.274 405.173 92.55 404.314 92.55ZM412.962 99.22C409.895 99.22 407.273 99.082 405.096 98.806C402.919 98.5607 401.109 98.162 399.668 97.61C398.227 97.0887 397.015 96.3987 396.034 95.54C395.451 95.9387 394.792 96.3987 394.056 96.92C393.32 97.4413 392.799 97.8093 392.492 98.024C391.725 98.5147 390.882 98.668 389.962 98.484C389.042 98.3307 388.337 97.84 387.846 97.012C387.355 96.2147 387.233 95.3867 387.478 94.528C387.723 93.6693 388.245 93.0407 389.042 92.642C389.441 92.4273 389.947 92.182 390.56 91.906C391.173 91.5993 391.771 91.2927 392.354 90.986V81.556C392.354 80.8507 392.262 80.3907 392.078 80.176C391.894 79.9307 391.449 79.808 390.744 79.808H389.778C388.858 79.808 388.137 79.5167 387.616 78.934C387.095 78.3513 386.834 77.6613 386.834 76.864C386.834 76.0667 387.095 75.392 387.616 74.84C388.137 74.2573 388.858 73.966 389.778 73.966H393.458C396.831 73.966 398.518 75.6373 398.518 78.98V90.572C399.07 91.124 399.683 91.584 400.358 91.952C401.063 92.32 401.937 92.6113 402.98 92.826C404.023 93.0407 405.341 93.194 406.936 93.286C408.561 93.378 410.57 93.424 412.962 93.424C414.526 93.424 416.136 93.4087 417.792 93.378C419.479 93.3473 421.073 93.3013 422.576 93.24C424.079 93.148 425.305 93.0713 426.256 93.01C427.421 92.9487 428.341 93.2093 429.016 93.792C429.691 94.344 430.028 95.0647 430.028 95.954C430.028 96.9047 429.752 97.6867 429.2 98.3C428.648 98.9133 427.743 99.22 426.486 99.22H412.962ZM398.656 67.802C398.073 68.354 397.337 68.63 396.448 68.63C395.589 68.63 394.838 68.2927 394.194 67.618C393.887 67.25 393.458 66.8053 392.906 66.284C392.385 65.732 391.848 65.1953 391.296 64.674C390.744 64.122 390.284 63.6773 389.916 63.34C389.333 62.8187 389.042 62.1593 389.042 61.362C389.042 60.5647 389.318 59.8747 389.87 59.292C390.391 58.74 391.081 58.3873 391.94 58.234C392.829 58.0807 393.611 58.3107 394.286 58.924C394.623 59.2 395.083 59.614 395.666 60.166C396.249 60.718 396.831 61.27 397.414 61.822C397.997 62.3433 398.441 62.7727 398.748 63.11C399.453 63.8153 399.791 64.6127 399.76 65.502C399.729 66.3607 399.361 67.1273 398.656 67.802ZM413.928 65.18L415.308 63.8C415.645 63.4933 415.783 63.2633 415.722 63.11C415.661 62.926 415.431 62.834 415.032 62.834H410.34C410.892 63.1713 411.505 63.57 412.18 64.03C412.855 64.4593 413.437 64.8427 413.928 65.18ZM417.24 80.36H421.058V78.658H417.24V80.36ZM407.396 80.36H411.122V78.658H407.396V80.36ZM417.24 74.288H421.012C420.951 73.5827 420.721 73.138 420.322 72.954C419.954 72.7393 419.295 72.632 418.344 72.632H417.24V74.288ZM407.442 74.288H411.122V72.632H410.064C409.113 72.632 408.454 72.7393 408.086 72.954C407.718 73.138 407.503 73.5827 407.442 74.288ZM448.842 100.232C447.953 100.232 447.186 99.9253 446.542 99.312C445.898 98.7293 445.576 97.9473 445.576 96.966V77.37C445.453 77.5233 445.331 77.6767 445.208 77.83C445.085 77.9527 444.963 78.0907 444.84 78.244C444.257 78.9187 443.506 79.2867 442.586 79.348C441.666 79.3787 440.853 79.118 440.148 78.566C439.473 78.0447 439.121 77.3547 439.09 76.496C439.059 75.6373 439.305 74.886 439.826 74.242C440.654 73.1993 441.513 72.034 442.402 70.746C443.291 69.4273 444.15 68.078 444.978 66.698C445.806 65.318 446.542 63.984 447.186 62.696C447.861 61.3773 448.397 60.1967 448.796 59.154C449.164 58.234 449.762 57.59 450.59 57.222C451.449 56.854 452.323 56.8387 453.212 57.176C454.04 57.4827 454.623 58.0193 454.96 58.786C455.328 59.5527 455.328 60.396 454.96 61.316C454.592 62.2667 454.163 63.248 453.672 64.26C453.181 65.272 452.66 66.2993 452.108 67.342V96.966C452.108 97.9473 451.786 98.7293 451.142 99.312C450.498 99.9253 449.731 100.232 448.842 100.232ZM465.034 98.944C462.857 98.944 461.139 98.7293 459.882 98.3C458.625 97.8707 457.735 97.1347 457.214 96.092C456.693 95.08 456.432 93.6693 456.432 91.86C456.432 90.0507 456.693 88.64 457.214 87.628C457.735 86.5853 458.625 85.8493 459.882 85.42C461.139 84.9907 462.857 84.776 465.034 84.776H471.014C473.222 84.776 474.955 84.9907 476.212 85.42C477.469 85.8493 478.359 86.5853 478.88 87.628C479.401 88.64 479.662 90.0507 479.662 91.86C479.662 93.6693 479.401 95.08 478.88 96.092C478.359 97.1347 477.469 97.8707 476.212 98.3C474.955 98.7293 473.222 98.944 471.014 98.944H465.034ZM455.65 70.378C454.945 70.378 454.331 70.1327 453.81 69.642C453.289 69.1207 453.028 68.5073 453.028 67.802C453.028 67.0967 453.289 66.4833 453.81 65.962C454.331 65.4407 454.945 65.18 455.65 65.18H480.444C481.149 65.18 481.747 65.4407 482.238 65.962C482.759 66.4833 483.02 67.0967 483.02 67.802C483.02 68.5073 482.759 69.1207 482.238 69.642C481.747 70.1327 481.149 70.378 480.444 70.378H455.65ZM459.1 83.304C458.425 83.304 457.827 83.0587 457.306 82.568C456.815 82.0773 456.57 81.4793 456.57 80.774C456.57 80.0687 456.815 79.486 457.306 79.026C457.827 78.5353 458.425 78.29 459.1 78.29H476.81C477.515 78.29 478.098 78.5353 478.558 79.026C479.049 79.486 479.294 80.0687 479.294 80.774C479.294 81.4793 479.049 82.0773 478.558 82.568C478.098 83.0587 477.515 83.304 476.81 83.304H459.1ZM459.1 76.864C458.425 76.864 457.827 76.6187 457.306 76.128C456.815 75.6067 456.57 75.0087 456.57 74.334C456.57 73.6287 456.815 73.046 457.306 72.586C457.827 72.0953 458.425 71.85 459.1 71.85H476.81C477.515 71.85 478.098 72.0953 478.558 72.586C479.049 73.046 479.294 73.6287 479.294 74.334C479.294 75.0087 479.049 75.6067 478.558 76.128C478.098 76.6187 477.515 76.864 476.81 76.864H459.1ZM459.1 63.754C458.425 63.754 457.827 63.5087 457.306 63.018C456.815 62.5273 456.57 61.9447 456.57 61.27C456.57 60.5647 456.815 59.9667 457.306 59.476C457.827 58.9853 458.425 58.74 459.1 58.74H476.81C477.515 58.74 478.098 58.9853 478.558 59.476C479.049 59.9667 479.294 60.5647 479.294 61.27C479.294 61.9447 479.049 62.5273 478.558 63.018C478.098 63.5087 477.515 63.754 476.81 63.754H459.1ZM465.402 93.47H470.692C471.336 93.47 471.796 93.3627 472.072 93.148C472.379 92.9333 472.532 92.504 472.532 91.86C472.532 91.216 472.379 90.7867 472.072 90.572C471.796 90.3573 471.336 90.25 470.692 90.25H465.402C464.758 90.25 464.283 90.3573 463.976 90.572C463.7 90.7867 463.562 91.216 463.562 91.86C463.562 92.504 463.7 92.9333 463.976 93.148C464.283 93.3627 464.758 93.47 465.402 93.47Z" fill="#E96600"/>
<path d="M5 98C5 98 32.7619 122.941 262.429 122.941C492.095 122.941 535 98 535 98" stroke="#E96600" stroke-width="10" stroke-linecap="round"/>
<path d="M475.765 133.022C475.765 141.86 473.095 147.882 462.19 147.882C451.285 147.882 416.529 125.856 416.529 117.018C416.529 114.309 427.621 115.925 431.338 114.731C441.211 114.731 452.159 113.588 459.722 113.588C470.627 113.588 475.765 124.183 475.765 133.022Z" fill="#E96600"/>
<path d="M445 119.262C445.295 119.634 445.598 120.003 445.906 120.366C448.644 123.635 451.784 126.356 454.854 128.618C455.245 128.913 455.667 129.239 455.878 129.416C458.474 131.789 461.428 133.806 464.741 135.468C465.167 135.681 465.602 135.892 466.032 136.087C466.032 136.087 466.032 136.087 466.032 136.087C465.838 135.657 465.626 135.221 465.413 134.796C463.751 131.483 461.734 128.529 459.361 125.933C458.806 125.355 458.351 125 457.871 124.631C454.389 122.072 450.586 120.549 446.4 119.555C445.936 119.447 445.467 119.348 445 119.262Z" fill="white"/>
<g clip-path="url(#clip0_1299_599)">
<path d="M104.301 12.1293C101.163 10.7884 97.5115 11.6807 95.3371 14.3157C94.5793 13.4886 93.6851 12.8339 92.6568 12.3945C90.7761 11.5908 88.6531 11.5671 86.755 12.3286C84.8568 13.0902 83.3389 14.5746 82.5351 16.4553C81.8682 18.0275 81.7407 19.7763 82.1724 21.4287C82.6042 23.081 83.5709 24.5439 84.9216 25.5889L79.5199 38.2291L102.566 48.078L107.968 35.4378C111.437 35.9557 114.84 34.0764 116.219 30.8499C117.022 28.9692 117.046 26.8462 116.284 24.948C115.523 23.0498 114.038 21.5319 112.158 20.7282C111.13 20.2888 110.038 20.095 108.917 20.1189C109.318 16.7263 107.439 13.4703 104.301 12.1293ZM96.5964 27.7058L98.3693 28.4634L93.066 40.8731L91.2932 40.1155L96.5964 27.7058ZM89.7628 28.9786L91.5356 29.7362L87.7476 38.6003L85.9747 37.8427L89.7628 28.9786ZM100.4 33.5243L102.172 34.2819L98.3844 43.146L96.6116 42.3883L100.4 33.5243ZM78.7623 40.0019L78.0047 41.7747C77.8037 42.2449 77.7978 42.7756 77.9882 43.2502C78.1786 43.7247 78.5497 44.1042 79.0199 44.3051L98.5208 52.6388C98.991 52.8398 99.5217 52.8457 99.9963 52.6553C100.471 52.4649 100.85 52.0938 101.051 51.6236L101.809 49.8508L78.7623 40.0019Z" fill="#E96600"/>
</g>
<path d="M37.9121 56C43.9384 56.0003 48.8232 64.3753 48.8232 74.7061C48.8232 85.0368 43.9383 93.4118 37.9121 93.4121C31.8857 93.4121 27.0001 85.0369 27 74.7061C27 64.3751 31.8857 56 37.9121 56ZM45 72C43.3431 72 42 73.3431 42 75C42 76.6569 43.3431 78 45 78C46.6569 78 48 76.6569 48 75C48 73.3431 46.6569 72 45 72Z" fill="#E96600"/>
<path d="M66.9121 56C72.9384 56.0003 77.8232 64.3753 77.8232 74.7061C77.8232 85.0368 72.9383 93.4118 66.9121 93.4121C60.8857 93.4121 56.0001 85.0369 56 74.7061C56 64.3751 60.8857 56 66.9121 56ZM74 72C72.3431 72 71 73.3431 71 75C71 76.6569 72.3431 78 74 78C75.6569 78 77 76.6569 77 75C77 73.3431 75.6569 72 74 72Z" fill="#E96600"/>
<defs>
<clipPath id="clip0_1299_599">
<rect width="46.2698" height="46.2698" fill="white" transform="translate(83.2776) rotate(23.1394)"/>
</clipPath>
</defs>
</svg>
