<svg width="16" height="16" viewBox="0 0 16 16" fill="none" xmlns="http://www.w3.org/2000/svg">
<path d="M8.33333 1C7.15333 1 6.11333 1.78 5.78 2.91333C5.42667 2.75333 5.05333 2.66667 4.66667 2.66667C3.95942 2.66667 3.28115 2.94762 2.78105 3.44772C2.28095 3.94781 2 4.62609 2 5.33333C2.00158 5.92389 2.19866 6.4973 2.56048 6.96405C2.9223 7.43079 3.42848 7.76459 4 7.91333V12.6667H12.6667V7.91333C13.84 7.60667 14.6667 6.54667 14.6667 5.33333C14.6667 4.62609 14.3857 3.94781 13.8856 3.44772C13.3855 2.94762 12.7072 2.66667 12 2.66667C11.6133 2.66667 11.24 2.75333 10.8867 2.91333C10.5533 1.78 9.51333 1 8.33333 1ZM8 7H8.66667V11.6667H8V7ZM6 8.33333H6.66667V11.6667H6V8.33333ZM10 8.33333H10.6667V11.6667H10V8.33333ZM4 13.3333V14C4 14.1768 4.07024 14.3464 4.19526 14.4714C4.32029 14.5964 4.48986 14.6667 4.66667 14.6667H12C12.1768 14.6667 12.3464 14.5964 12.4714 14.4714C12.5964 14.3464 12.6667 14.1768 12.6667 14V13.3333H4Z" fill="#E96600"/>
</svg>
