<svg width="354" height="246" viewBox="0 0 354 246" fill="none" xmlns="http://www.w3.org/2000/svg">
<g filter="url(#filter0_d_362_802)">
<path d="M111.375 12C160.823 12 201.835 41.9369 209.473 81.1377C212.527 80.9971 215.613 80.9248 218.726 80.9248C286.756 80.9249 341.905 115.097 341.905 157.251C341.905 199.405 286.756 233.577 218.726 233.577C161.22 233.577 112.919 209.16 99.3506 176.145C50.1379 171.224 12.0001 136.491 12 94.3721C12 48.8794 56.4917 12.0001 111.375 12Z" fill="white"/>
</g>
<mask id="path-2-inside-1_362_802" fill="white">
<path d="M111.21 19.3102C160.234 19.3102 199.977 52.2728 199.978 92.9342C199.978 92.9892 199.976 93.0444 199.976 93.0993C205.26 92.647 210.666 92.4128 216.164 92.4128C277.589 92.4128 327.384 121.635 327.384 157.682C327.384 193.73 277.589 222.952 216.164 222.952C159.794 222.952 113.22 198.341 105.937 166.429C59.367 164.166 22.4434 132.127 22.4434 92.9342C22.4436 52.2729 62.1856 19.3104 111.21 19.3102Z"/>
</mask>
<path d="M111.21 19.3102V18.3102V19.3102ZM199.978 92.9342H200.978V92.9342L199.978 92.9342ZM199.976 93.0993L198.976 93.0966L198.973 94.1888L200.061 94.0956L199.976 93.0993ZM216.164 92.4128V91.4128V92.4128ZM327.384 157.682H328.384H327.384ZM216.164 222.952V223.952V222.952ZM105.937 166.429L106.911 166.207L106.743 165.467L105.985 165.431L105.937 166.429ZM22.4434 92.9342L21.4434 92.9342V92.9342H22.4434ZM111.21 19.3102V18.3102C110.534 18.3102 109.86 18.3164 109.188 18.3288L109.206 19.3286L109.225 20.3284C109.885 20.3163 110.546 20.3102 111.21 20.3102V19.3102ZM105.215 19.4755L105.16 18.477C103.812 18.5516 102.472 18.6509 101.141 18.7744L101.233 19.7701L101.326 20.7658C102.632 20.6446 103.947 20.5471 105.271 20.4739L105.215 19.4755ZM97.2652 20.2135L97.1355 19.222C95.7969 19.3971 94.468 19.5969 93.1497 19.8207L93.317 20.8066L93.4844 21.7925C94.7778 21.573 96.0815 21.3769 97.395 21.205L97.2652 20.2135ZM89.3907 21.551L89.1855 20.5723C87.863 20.8495 86.552 21.1511 85.2535 21.4766L85.4966 22.4466L85.7397 23.4166C87.013 23.0975 88.2987 22.8016 89.5958 22.5297L89.3907 21.551ZM81.6409 23.4938L81.3598 22.5342C80.063 22.9141 78.7797 23.318 77.5109 23.7454L77.8301 24.6931L78.1493 25.6408C79.3929 25.2219 80.6507 24.8259 81.922 24.4535L81.6409 23.4938ZM74.0708 26.0445L73.7135 25.1105C72.4512 25.5935 71.2046 26.1001 69.9745 26.6297L70.37 27.5482L70.7654 28.4667C71.9702 27.9479 73.1914 27.4517 74.4282 26.9785L74.0708 26.0445ZM66.7348 29.2041L66.3013 28.3029C65.0829 28.8891 63.8827 29.4984 62.7013 30.1301L63.1729 31.012L63.6445 31.8938C64.8006 31.2755 65.9755 30.6791 67.1684 30.1052L66.7348 29.2041ZM59.6922 32.9716L59.1827 32.1111C58.0188 32.8002 56.8756 33.5119 55.7537 34.2453L56.301 35.0823L56.8482 35.9193C57.9451 35.2021 59.0632 34.5061 60.2016 33.832L59.6922 32.9716ZM53.0082 37.3434L52.4234 36.5322C51.3258 37.3234 50.2514 38.1365 49.2012 38.9707L49.8231 39.7538L50.4451 40.5368C51.4707 39.7221 52.5203 38.9278 53.593 38.1546L53.0082 37.3434ZM46.7556 42.3119L46.0968 41.5596C45.0784 42.4513 44.0861 43.3641 43.1209 44.297L43.8159 45.016L44.5109 45.735C45.4522 44.8251 46.4204 43.9346 47.4143 43.0643L46.7556 42.3119ZM41.0151 47.8635L40.2845 47.1806C39.3599 48.1698 38.4645 49.179 37.5993 50.2073L38.3645 50.8511L39.1297 51.4949C39.9722 50.4935 40.8445 49.5104 41.7456 48.5463L41.0151 47.8635ZM35.876 53.9749L35.0773 53.3732C34.2625 54.4548 33.48 55.5551 32.7309 56.6733L33.5618 57.2298L34.3926 57.7864C35.1208 56.6992 35.8819 55.629 36.6747 54.5766L35.876 53.9749ZM31.4343 60.6097L30.573 60.1015C29.885 61.2674 29.2324 62.4507 28.6163 63.6502L29.5059 64.107L30.3955 64.5639C30.9934 63.3995 31.6271 62.2505 32.2955 61.1179L31.4343 60.6097ZM27.7887 67.7132L26.8732 67.3108C26.3287 68.5494 25.8225 69.8035 25.3558 71.0722L26.2943 71.4174L27.2328 71.7627C27.6852 70.533 28.176 69.317 28.7041 68.1156L27.7887 67.7132ZM25.0335 75.2071L24.0752 74.9214C23.6893 76.2161 23.3441 77.5241 23.0406 78.8446L24.0153 79.0686L24.9899 79.2925C25.2837 78.0138 25.618 76.7469 25.9918 75.4927L25.0335 75.2071ZM23.2467 82.9872L22.2597 82.8265C22.043 84.1571 21.8685 85.4987 21.7373 86.8506L22.7327 86.9472L23.728 87.0437C23.855 85.735 24.0239 84.4361 24.2337 83.1479L23.2467 82.9872ZM22.4756 90.932L21.4761 90.8999C21.4543 91.5758 21.4434 92.254 21.4434 92.9342L22.4434 92.9342L23.4434 92.9342C23.4434 92.2754 23.454 91.6187 23.475 90.9642L22.4756 90.932ZM22.4434 92.9342H21.4434C21.4434 93.6298 21.4548 94.3231 21.4775 95.0142L22.477 94.9813L23.4765 94.9484C23.4544 94.2793 23.4434 93.6078 23.4434 92.9342H22.4434ZM22.7458 99.0557L21.7507 99.1545C21.8879 100.537 22.0703 101.908 22.2968 103.268L23.2832 103.103L24.2696 102.939C24.0503 101.623 23.8737 100.295 23.7409 98.957L22.7458 99.0557ZM24.0866 107.107L23.1132 107.336C23.4303 108.685 23.7911 110.021 24.1943 111.343L25.1508 111.051L26.1073 110.759C25.7167 109.478 25.3672 108.185 25.0601 106.878L24.0866 107.107ZM26.4677 114.917L25.5319 115.27C26.0191 116.563 26.5474 117.841 27.1155 119.102L28.0273 118.692L28.9391 118.281C28.388 117.057 27.8757 115.818 27.4035 114.564L26.4677 114.917ZM29.8182 122.362L28.9333 122.828C29.5755 124.048 30.2558 125.251 30.9727 126.436L31.8283 125.918L32.6838 125.4C31.9872 124.249 31.3266 123.081 30.7031 121.896L29.8182 122.362ZM34.0444 129.35L33.2204 129.916C34.0002 131.051 34.8147 132.166 35.6626 133.262L36.4534 132.65L37.2443 132.038C36.4191 130.971 35.6268 129.886 34.8684 128.783L34.0444 129.35ZM39.0411 135.81L38.2849 136.464C39.1837 137.503 40.1136 138.522 41.0737 139.52L41.7942 138.826L42.5148 138.133C41.579 137.16 40.6728 136.168 39.7974 135.156L39.0411 135.81ZM44.7011 141.695L44.0171 142.424C45.0182 143.363 46.0472 144.28 47.103 145.175L47.7497 144.413L48.3964 143.65C47.3657 142.776 46.3616 141.881 45.385 140.965L44.7011 141.695ZM50.9285 146.977L50.3196 147.771C51.4073 148.606 52.5198 149.418 53.656 150.208L54.2268 149.387L54.7975 148.566C53.687 147.794 52.5999 147 51.5375 146.184L50.9285 146.977ZM57.6341 151.64L57.1018 152.487C58.2619 153.216 59.444 153.923 60.647 154.606L61.1406 153.736L61.6342 152.866C60.4572 152.198 59.3009 151.507 58.1663 150.794L57.6341 151.64ZM64.737 155.673L64.2823 156.564C65.5022 157.187 66.7414 157.786 67.9988 158.361L68.4146 157.452L68.8305 156.542C67.5991 155.979 66.3859 155.392 65.1918 154.783L64.737 155.673ZM72.165 159.071L71.7882 159.997C73.0564 160.513 74.3414 161.005 75.6423 161.472L75.9802 160.531L76.3181 159.59C75.0433 159.132 73.7843 158.65 72.5419 158.145L72.165 159.071ZM79.8524 161.832L79.5535 162.786C80.8597 163.195 82.1802 163.58 83.5145 163.939L83.7745 162.973L84.0345 162.008C82.7263 161.655 81.4317 161.278 80.1514 160.877L79.8524 161.832ZM87.7392 163.956L87.518 164.931C88.8523 165.234 90.199 165.512 91.5573 165.764L91.7398 164.781L91.9222 163.797C90.5899 163.55 89.269 163.278 87.9604 162.981L87.7392 163.956ZM95.7696 165.447L95.6256 166.437C96.9791 166.634 98.343 166.805 99.7166 166.951L99.8222 165.957L99.9278 164.962C98.5799 164.819 97.2415 164.651 95.9135 164.458L95.7696 165.447ZM103.892 166.31L103.824 167.308C104.51 167.355 105.198 167.395 105.888 167.428L105.937 166.429L105.985 165.431C105.308 165.398 104.632 165.358 103.959 165.313L103.892 166.31ZM105.937 166.429L104.962 166.652C105.109 167.298 105.272 167.941 105.451 168.58L106.414 168.312L107.377 168.043C107.207 167.434 107.052 166.821 106.911 166.207L105.937 166.429ZM107.632 172.003L106.698 172.359C107.166 173.589 107.693 174.804 108.275 176.005L109.175 175.569L110.074 175.133C109.517 173.983 109.014 172.82 108.566 171.647L107.632 172.003ZM111.009 178.991L110.147 179.498C110.809 180.625 111.522 181.737 112.282 182.833L113.104 182.264L113.925 181.694C113.193 180.637 112.507 179.567 111.871 178.484L111.009 178.991ZM115.428 185.38L114.647 186.004C115.46 187.021 116.316 188.024 117.212 189.011L117.953 188.338L118.693 187.666C117.824 186.709 116.995 185.739 116.209 184.755L115.428 185.38ZM120.651 191.141L119.951 191.854C120.877 192.764 121.84 193.658 122.836 194.537L123.498 193.787L124.159 193.037C123.188 192.181 122.252 191.31 121.351 190.427L120.651 191.141ZM126.474 196.284L125.849 197.066C126.862 197.874 127.904 198.669 128.976 199.448L129.564 198.64L130.153 197.831C129.105 197.069 128.086 196.293 127.098 195.503L126.474 196.284ZM132.756 200.858L132.202 201.691C133.281 202.408 134.385 203.111 135.515 203.8L136.035 202.946L136.556 202.092C135.448 201.417 134.366 200.728 133.309 200.026L132.756 200.858ZM139.392 204.907L138.904 205.78C140.034 206.413 141.186 207.032 142.36 207.637L142.818 206.748L143.276 205.859C142.123 205.265 140.991 204.656 139.881 204.035L139.392 204.907ZM146.303 208.471L145.875 209.375C147.044 209.929 148.232 210.47 149.438 210.997L149.838 210.08L150.239 209.164C149.051 208.645 147.882 208.113 146.732 207.568L146.303 208.471ZM153.421 211.581L153.048 212.509C154.249 212.992 155.467 213.461 156.7 213.916L157.046 212.978L157.393 212.039C156.177 211.591 154.977 211.129 153.794 210.653L153.421 211.581ZM160.711 214.273L160.39 215.22C161.617 215.635 162.859 216.037 164.114 216.425L164.41 215.469L164.705 214.514C163.466 214.131 162.241 213.735 161.031 213.325L160.711 214.273ZM168.14 216.57L167.869 217.533C169.118 217.884 170.379 218.222 171.652 218.547L171.899 217.578L172.146 216.609C170.888 216.288 169.643 215.954 168.411 215.608L168.14 216.57ZM175.676 218.492L175.452 219.467C176.714 219.756 177.986 220.033 179.27 220.296L179.47 219.316L179.671 218.336C178.403 218.076 177.146 217.803 175.899 217.517L175.676 218.492ZM183.286 220.053L183.107 221.037C184.383 221.268 185.669 221.486 186.963 221.691L187.12 220.704L187.276 219.716C185.996 219.513 184.725 219.298 183.464 219.069L183.286 220.053ZM190.97 221.27L190.835 222.261C192.119 222.435 193.412 222.597 194.712 222.745L194.826 221.752L194.939 220.758C193.653 220.611 192.375 220.452 191.105 220.279L190.97 221.27ZM198.689 222.151L198.597 223.146C199.888 223.266 201.186 223.373 202.492 223.466L202.563 222.469L202.634 221.471C201.343 221.379 200.058 221.273 198.781 221.155L198.689 222.151ZM206.447 222.706L206.396 223.705C207.691 223.771 208.993 223.823 210.301 223.863L210.331 222.864L210.361 221.864C209.067 221.825 207.779 221.773 206.497 221.707L206.447 222.706ZM214.214 222.942L214.204 223.942C214.856 223.949 215.509 223.952 216.164 223.952V222.952V221.952C215.516 221.952 214.869 221.949 214.224 221.942L214.214 222.942ZM216.164 222.952V223.952C216.824 223.952 217.483 223.948 218.14 223.942L218.13 222.942L218.12 221.942C217.469 221.948 216.817 221.952 216.164 221.952V222.952ZM222.038 222.862L222.069 223.862C223.388 223.822 224.702 223.768 226.009 223.701L225.958 222.702L225.906 221.704C224.613 221.77 223.314 221.823 222.008 221.863L222.038 222.862ZM229.868 222.461L229.94 223.459C231.253 223.364 232.56 223.256 233.859 223.135L233.766 222.139L233.673 221.143C232.388 221.263 231.096 221.37 229.796 221.464L229.868 222.461ZM237.662 221.733L237.777 222.727C239.089 222.576 240.393 222.412 241.688 222.234L241.552 221.244L241.417 220.253C240.136 220.428 238.846 220.591 237.548 220.74L237.662 221.733ZM245.424 220.669L245.582 221.657C246.883 221.449 248.175 221.228 249.457 220.994L249.277 220.01L249.097 219.027C247.83 219.258 246.553 219.477 245.267 219.682L245.424 220.669ZM253.128 219.26L253.331 220.24C254.625 219.972 255.909 219.691 257.182 219.396L256.957 218.422L256.731 217.448C255.474 217.739 254.205 218.017 252.926 218.281L253.128 219.26ZM260.759 217.493L261.008 218.462C262.286 218.133 263.552 217.791 264.805 217.435L264.532 216.473L264.259 215.511C263.022 215.862 261.772 216.2 260.51 216.525L260.759 217.493ZM268.291 215.354L268.589 216.309C269.854 215.914 271.105 215.505 272.341 215.083L272.018 214.137L271.694 213.191C270.475 213.607 269.242 214.01 267.993 214.399L268.291 215.354ZM275.706 212.82L276.056 213.758C277.297 213.295 278.521 212.818 279.729 212.328L279.353 211.402L278.977 210.475C277.787 210.958 276.58 211.428 275.357 211.883L275.706 212.82ZM282.954 209.877L283.358 210.792C284.573 210.256 285.769 209.705 286.945 209.141L286.513 208.239L286.08 207.337C284.923 207.893 283.746 208.434 282.55 208.962L282.954 209.877ZM290.019 206.485L290.482 207.371C291.662 206.756 292.82 206.126 293.955 205.482L293.462 204.612L292.968 203.742C291.854 204.374 290.716 204.993 289.557 205.598L290.019 206.485ZM296.832 202.616L297.358 203.467C298.492 202.766 299.6 202.05 300.681 201.32L300.122 200.491L299.563 199.662C298.504 200.377 297.418 201.078 296.306 201.765L296.832 202.616ZM303.32 198.233L303.915 199.037C304.989 198.243 306.033 197.434 307.046 196.61L306.415 195.834L305.784 195.058C304.796 195.862 303.776 196.652 302.726 197.429L303.32 198.233ZM309.391 193.289L310.06 194.033C311.056 193.137 312.016 192.225 312.939 191.299L312.231 190.593L311.523 189.887C310.626 190.787 309.692 191.674 308.722 192.546L309.391 193.289ZM314.914 187.741L315.662 188.404C316.552 187.399 317.401 186.378 318.205 185.342L317.416 184.728L316.626 184.115C315.848 185.116 315.028 186.104 314.165 187.078L314.914 187.741ZM319.709 181.555L320.54 182.112C321.288 180.995 321.987 179.863 322.635 178.716L321.764 178.224L320.893 177.732C320.271 178.834 319.599 179.923 318.878 180.999L319.709 181.555ZM323.547 174.741L324.455 175.159C325.017 173.938 325.521 172.703 325.967 171.454L325.025 171.118L324.083 170.782C323.658 171.974 323.176 173.155 322.638 174.323L323.547 174.741ZM326.166 167.374L327.135 167.619C327.465 166.321 327.731 165.009 327.931 163.687L326.942 163.537L325.954 163.387C325.763 164.644 325.51 165.892 325.197 167.128L326.166 167.374ZM327.335 159.644L328.333 159.694C328.367 159.026 328.384 158.355 328.384 157.682H327.384H326.384C326.384 158.322 326.368 158.959 326.336 159.593L327.335 159.644ZM327.384 157.682H328.384C328.384 157.009 328.367 156.339 328.333 155.671L327.335 155.721L326.336 155.771C326.368 156.406 326.384 157.043 326.384 157.682H327.384ZM326.942 151.828L327.931 151.678C327.731 150.355 327.465 149.044 327.135 147.745L326.166 147.991L325.197 148.237C325.51 149.473 325.763 150.72 325.954 151.978L326.942 151.828ZM325.025 144.246L325.967 143.911C325.521 142.662 325.017 141.426 324.455 140.206L323.547 140.624L322.638 141.042C323.176 142.21 323.658 143.39 324.083 144.582L325.025 144.246ZM321.764 137.141L322.635 136.649C321.987 135.502 321.288 134.369 320.54 133.252L319.709 133.809L318.878 134.366C319.599 135.442 320.271 136.531 320.893 137.632L321.764 137.141ZM317.416 130.636L318.205 130.023C317.401 128.987 316.552 127.966 315.662 126.961L314.914 127.624L314.165 128.287C315.028 129.261 315.848 130.249 316.626 131.25L317.416 130.636ZM312.231 124.771L312.939 124.065C312.016 123.139 311.056 122.228 310.06 121.332L309.391 122.075L308.722 122.819C309.692 123.691 310.626 124.577 311.523 125.477L312.231 124.771ZM306.415 119.531L307.046 118.755C306.033 117.931 304.989 117.122 303.915 116.328L303.321 117.132L302.726 117.936C303.776 118.712 304.796 119.502 305.784 120.306L306.415 119.531ZM300.122 114.873L300.681 114.044C299.6 113.314 298.492 112.599 297.358 111.898L296.832 112.749L296.307 113.599C297.418 114.286 298.504 114.987 299.563 115.702L300.122 114.873ZM293.462 110.753L293.955 109.883C292.82 109.239 291.662 108.609 290.482 107.993L290.019 108.88L289.557 109.767C290.717 110.371 291.854 110.99 292.968 111.622L293.462 110.753ZM286.513 107.126L286.946 106.224C285.769 105.66 284.573 105.109 283.358 104.573L282.954 105.488L282.55 106.402C283.746 106.93 284.923 107.472 286.08 108.027L286.513 107.126ZM279.353 103.963L279.729 103.036C278.522 102.546 277.297 102.07 276.056 101.607L275.706 102.544L275.357 103.481C276.581 103.937 277.787 104.407 278.977 104.89L279.353 103.963ZM272.018 101.228L272.341 100.281C271.105 99.8592 269.854 99.4507 268.589 99.056L268.291 100.011L267.993 100.965C269.242 101.355 270.476 101.758 271.695 102.174L272.018 101.228ZM264.532 98.8915L264.805 97.9295C263.552 97.5738 262.286 97.2314 261.008 96.9027L260.759 97.8712L260.51 98.8397C261.772 99.1643 263.022 99.5023 264.259 99.8535L264.532 98.8915ZM256.957 96.9426L257.182 95.9684C255.909 95.6738 254.626 95.3925 253.331 95.1248L253.128 96.1041L252.926 97.0834C254.205 97.3479 255.474 97.6258 256.731 97.9169L256.957 96.9426ZM249.277 95.3544L249.457 94.3707C248.175 94.1364 246.883 93.9153 245.582 93.7076L245.424 94.6951L245.267 95.6826C246.553 95.8879 247.83 96.1065 249.097 96.3381L249.277 95.3544ZM241.552 94.121L241.688 93.1302C240.393 92.9528 239.089 92.7885 237.777 92.6377L237.663 93.6311L237.548 94.6246C238.846 94.7737 240.136 94.9362 241.417 95.1117L241.552 94.121ZM233.766 93.2256L233.859 92.2299C232.56 92.1087 231.253 92.0006 229.94 91.9059L229.868 92.9033L229.796 93.9007C231.096 93.9944 232.388 94.1013 233.673 94.2213L233.766 93.2256ZM225.958 92.6623L226.009 91.6636C224.702 91.5967 223.388 91.543 222.069 91.5027L222.038 92.5022L222.008 93.5018C223.314 93.5416 224.613 93.5948 225.907 93.661L225.958 92.6623ZM218.13 92.4227L218.14 91.4228C217.483 91.4161 216.824 91.4128 216.164 91.4128V92.4128V93.4128C216.817 93.4128 217.469 93.4161 218.12 93.4227L218.13 92.4227ZM216.164 92.4128V91.4128C215.484 91.4128 214.805 91.4163 214.128 91.4234L214.138 92.4234L214.149 93.4233C214.819 93.4163 215.491 93.4128 216.164 93.4128V92.4128ZM210.087 92.5086L210.055 91.5091C208.692 91.5522 207.336 91.6096 205.986 91.6811L206.039 92.6797L206.092 93.6783C207.427 93.6075 208.77 93.5507 210.119 93.5081L210.087 92.5086ZM201.995 92.9375L201.921 91.9403C201.242 91.9909 200.565 92.0452 199.89 92.1029L199.976 93.0993L200.061 94.0956C200.728 94.0385 201.398 93.9849 202.07 93.9348L201.995 92.9375ZM199.976 93.0993L200.976 93.1019C200.976 93.0931 200.976 93.0833 200.976 93.0718L199.976 93.058L198.976 93.0442C198.976 93.0602 198.976 93.078 198.976 93.0966L199.976 93.0993ZM199.977 92.9755L200.977 92.988C200.977 92.9715 200.978 92.9534 200.978 92.9342H199.978H198.978C198.978 92.9426 198.977 92.952 198.977 92.963L199.977 92.9755ZM199.978 92.9342L200.978 92.9342C200.978 92.254 200.967 91.5758 200.945 90.8998L199.945 90.932L198.946 90.9642C198.967 91.6187 198.978 92.2754 198.978 92.9342L199.978 92.9342ZM199.688 86.9471L200.684 86.8505C200.552 85.4987 200.378 84.157 200.161 82.8264L199.174 82.9871L198.187 83.1478C198.397 84.436 198.566 85.7349 198.693 87.0437L199.688 86.9471ZM198.406 79.0685L199.38 78.8445C199.077 77.524 198.732 76.216 198.346 74.9213L197.387 75.2069L196.429 75.4926C196.803 76.7468 197.137 78.0137 197.431 79.2924L198.406 79.0685ZM196.126 71.4173L197.065 71.072C196.598 69.8034 196.092 68.5492 195.548 67.3106L194.632 67.713L193.717 68.1155C194.245 69.3168 194.736 70.5329 195.188 71.7625L196.126 71.4173ZM192.915 64.1069L193.804 63.6501C193.188 62.4505 192.536 61.2673 191.848 60.1013L190.986 60.6095L190.125 61.1178C190.794 62.2504 191.427 63.3994 192.025 64.5637L192.915 64.1069ZM188.859 57.2297L189.69 56.6731C188.941 55.5549 188.158 54.4546 187.343 53.373L186.545 53.9748L185.746 54.5765C186.539 55.6289 187.3 56.6991 188.028 57.7862L188.859 57.2297ZM184.056 50.851L184.821 50.2072C183.956 49.1788 183.061 48.1696 182.136 47.1805L181.405 47.8633L180.675 48.5462C181.576 49.5102 182.448 50.4934 183.291 51.4948L184.056 50.851ZM178.605 45.0159L179.3 44.2968C178.334 43.3639 177.342 42.4512 176.324 41.5594L175.665 42.3118L175.006 43.0642C176 43.9345 176.968 44.825 177.91 45.7349L178.605 45.0159ZM172.597 39.7536L173.219 38.9706C172.169 38.1364 171.095 37.3233 169.997 36.5321L169.412 37.3433L168.827 38.1545C169.9 38.9277 170.95 39.722 171.975 40.5367L172.597 39.7536ZM166.119 35.0822L166.667 34.2452C165.545 33.5117 164.401 32.8001 163.238 32.111L162.728 32.9715L162.219 33.8319C163.357 34.506 164.475 35.202 165.572 35.9192L166.119 35.0822ZM159.247 31.0119L159.719 30.13C158.538 29.4983 157.337 28.889 156.119 28.3028L155.685 29.204L155.252 30.1051C156.445 30.679 157.62 31.2754 158.776 31.8937L159.247 31.0119ZM152.05 27.5481L152.446 26.6296C151.216 26.1 149.969 25.5934 148.707 25.1104L148.349 26.0444L147.992 26.9784C149.229 27.4516 150.45 27.9479 151.655 28.4666L152.05 27.5481ZM144.59 24.693L144.909 23.7453C143.64 23.3179 142.357 22.914 141.06 22.5341L140.779 23.4938L140.498 24.4534C141.769 24.8259 143.027 25.2218 144.271 25.6407L144.59 24.693ZM136.924 22.4465L137.167 21.4765C135.868 21.1511 134.557 20.8494 133.235 20.5722L133.029 21.5509L132.824 22.5297C134.121 22.8016 135.407 23.0974 136.68 23.4165L136.924 22.4465ZM129.103 20.8066L129.27 19.8207C127.952 19.5969 126.623 19.3971 125.285 19.2219L125.155 20.2135L125.025 21.205C126.339 21.3769 127.642 21.5729 128.936 21.7925L129.103 20.8066ZM121.187 19.7701L121.279 18.7743C119.948 18.6508 118.608 18.5515 117.26 18.477L117.205 19.4755L117.149 20.4739C118.473 20.5471 119.788 20.6446 121.094 20.7658L121.187 19.7701ZM113.214 19.3286L113.232 18.3288C112.56 18.3164 111.886 18.3102 111.21 18.3102V19.3102V20.3102C111.874 20.3102 112.535 20.3163 113.195 20.3284L113.214 19.3286ZM111.21 19.3102V17.3102H111.21L111.21 19.3102ZM199.978 92.9342H201.978V92.9342L199.978 92.9342ZM199.976 93.0993L197.976 93.094L197.97 95.2782L200.146 95.092L199.976 93.0993ZM216.164 92.4128V90.4128V92.4128ZM327.384 157.682H329.384H327.384ZM216.164 222.952V224.952V222.952ZM105.937 166.429L107.886 165.984L107.549 164.505L106.034 164.432L105.937 166.429ZM22.4434 92.9342L20.4434 92.9342V92.9342H22.4434ZM111.21 19.3102L111.21 17.3102C110.528 17.3102 109.848 17.3165 109.169 17.3289L109.206 19.3286L109.243 21.3283C109.897 21.3163 110.553 21.3102 111.21 21.3102L111.21 19.3102ZM105.215 19.4755L105.105 17.4785C103.744 17.5538 102.392 17.654 101.048 17.7786L101.233 19.7701L101.418 21.7615C102.712 21.6415 104.015 21.5449 105.326 21.4724L105.215 19.4755ZM97.2652 20.2135L97.0057 18.2304C95.6545 18.4072 94.3132 18.6089 92.9823 18.8348L93.317 20.8066L93.6518 22.7784C94.9326 22.561 96.2238 22.3668 97.5248 22.1966L97.2652 20.2135ZM89.3907 21.551L88.9803 19.5935C87.6451 19.8734 86.3215 20.178 85.0104 20.5066L85.4966 22.4466L85.9828 24.3866C87.2435 24.0706 88.5165 23.7777 89.801 23.5084L89.3907 21.551ZM81.6409 23.4938L81.0787 21.5745C79.7691 21.9581 78.4732 22.3661 77.1917 22.7977L77.8301 24.6931L78.4685 26.5884C79.6994 26.1738 80.9446 25.7819 82.2031 25.4132L81.6409 23.4938ZM74.0708 26.0445L73.3562 24.1765C72.0811 24.6644 70.8217 25.1762 69.5791 25.7112L70.37 27.5482L71.1609 29.3851C72.353 28.8719 73.5615 28.3808 74.7855 27.9124L74.0708 26.0445ZM66.7348 29.2041L65.8677 27.4018C64.6366 27.9941 63.4237 28.6098 62.2297 29.2483L63.1729 31.012L64.116 32.7756C65.2596 32.1641 66.4218 31.5741 67.6019 31.0063L66.7348 29.2041ZM59.6922 32.9716L58.6732 31.2506C57.4967 31.9472 56.3408 32.6667 55.2065 33.4084L56.301 35.0823L57.3955 36.7563C58.4798 36.0473 59.5853 35.3591 60.7111 34.6925L59.6922 32.9716ZM53.0082 37.3434L51.8387 35.721C50.7285 36.5212 49.6417 37.3437 48.5792 38.1877L49.8231 39.7538L51.0671 41.3198C52.0804 40.5149 53.1176 39.73 54.1777 38.9658L53.0082 37.3434ZM46.7556 42.3119L45.4381 40.8072C44.4074 41.7097 43.403 42.6335 42.4259 43.578L43.8159 45.016L45.2059 46.454C46.1353 45.5557 47.0914 44.6762 48.0731 43.8166L46.7556 42.3119ZM41.0151 47.8635L39.554 46.4978C38.6176 47.4995 37.7106 48.5217 36.8341 49.5635L38.3645 50.8511L39.8949 52.1387C40.7261 51.1508 41.5868 50.1807 42.4762 49.2292L41.0151 47.8635ZM35.876 53.9749L34.2785 52.7715C33.4528 53.8676 32.6595 54.9831 31.9001 56.1168L33.5618 57.2298L35.2234 58.3429C35.9412 57.2713 36.6916 56.2161 37.4734 55.1784L35.876 53.9749ZM31.4343 60.6097L29.7118 59.5933C29.0139 60.7759 28.3518 61.9762 27.7268 63.1934L29.5059 64.107L31.285 65.0207C31.8739 63.8739 32.4982 62.7421 33.1567 61.6261L31.4343 60.6097ZM27.7887 67.7132L25.9578 66.9083C25.4051 68.1656 24.8912 69.4388 24.4173 70.7269L26.2943 71.4174L28.1713 72.1079C28.6165 70.8977 29.0996 69.7008 29.6196 68.5181L27.7887 67.7132ZM25.0335 75.2071L23.1168 74.6358C22.7249 75.9507 22.3743 77.2793 22.066 78.6207L24.0153 79.0686L25.9645 79.5165C26.2535 78.2586 26.5824 77.0123 26.9502 75.7783L25.0335 75.2071ZM23.2467 82.9872L21.2727 82.6658C21.0526 84.0175 20.8753 85.3806 20.742 86.754L22.7327 86.9472L24.7233 87.1403C24.8482 85.8532 25.0144 84.5756 25.2207 83.3087L23.2467 82.9872ZM22.4756 90.932L20.4766 90.8677C20.4545 91.5544 20.4434 92.2432 20.4434 92.9342L22.4434 92.9342L24.4434 92.9342C24.4434 92.2862 24.4538 91.6402 24.4745 90.9964L22.4756 90.932ZM22.4434 92.9342H20.4434C20.4434 93.6407 20.455 94.3451 20.4781 95.0471L22.477 94.9813L24.4759 94.9155C24.4543 94.2573 24.4434 93.5969 24.4434 92.9342H22.4434ZM22.7458 99.0557L20.7556 99.2532C20.8949 100.657 21.0803 102.051 21.3104 103.432L23.2832 103.103L25.256 102.775C25.0404 101.48 24.8666 100.174 24.736 98.8582L22.7458 99.0557ZM24.0866 107.107L22.1397 107.565C22.4619 108.935 22.8284 110.292 23.2379 111.634L25.1508 111.051L27.0638 110.467C26.6794 109.207 26.3356 107.934 26.0335 106.649L24.0866 107.107ZM26.4677 114.917L24.5961 115.622C25.0907 116.935 25.627 118.232 26.2037 119.513L28.0273 118.692L29.8509 117.87C29.3083 116.666 28.8041 115.446 28.3393 114.212L26.4677 114.917ZM29.8182 122.362L28.0484 123.294C28.7 124.532 29.39 125.752 30.1172 126.954L31.8283 125.918L33.5393 124.882C32.8529 123.748 32.2021 122.597 31.5881 121.431L29.8182 122.362ZM34.0444 129.35L32.3963 130.483C33.1869 131.633 34.0125 132.763 34.8718 133.874L36.4534 132.65L38.0351 131.426C37.2213 130.374 36.44 129.304 35.6925 128.217L34.0444 129.35ZM39.0411 135.81L37.5286 137.119C38.4391 138.171 39.381 139.203 40.3531 140.213L41.7942 138.826L43.2353 137.439C42.3116 136.48 41.4174 135.5 40.5536 134.502L39.0411 135.81ZM44.7011 141.695L43.3331 143.154C44.3465 144.104 45.3879 145.032 46.4562 145.938L47.7497 144.413L49.0431 142.887C48.025 142.024 47.0333 141.14 46.069 140.236L44.7011 141.695ZM50.9285 146.977L49.7107 148.564C50.811 149.408 51.9362 150.231 53.0853 151.029L54.2268 149.387L55.3683 147.745C54.2706 146.982 53.1963 146.197 52.1464 145.391L50.9285 146.977ZM57.6341 151.64L56.5695 153.333C57.7424 154.071 58.9374 154.785 60.1534 155.475L61.1406 153.736L62.1278 151.997C60.9637 151.336 59.8204 150.652 58.6986 149.947L57.6341 151.64ZM64.737 155.673L63.8275 157.454C65.0603 158.084 66.3125 158.69 67.583 159.27L68.4146 157.452L69.2463 155.633C68.028 155.076 66.8278 154.495 65.6466 153.892L64.737 155.673ZM72.165 159.071L71.4113 160.923C72.6925 161.445 73.9905 161.942 75.3044 162.413L75.9802 160.531L76.656 158.649C75.3943 158.196 74.1483 157.719 72.9188 157.218L72.165 159.071ZM79.8524 161.832L79.2546 163.74C80.5737 164.153 81.9072 164.542 83.2545 164.904L83.7745 162.973L84.2945 161.042C82.9993 160.693 81.7177 160.32 80.4503 159.923L79.8524 161.832ZM87.7392 163.956L87.2968 165.907C88.644 166.212 90.0036 166.492 91.3748 166.747L91.7398 164.781L92.1047 162.814C90.7853 162.569 89.4773 162.299 88.1816 162.006L87.7392 163.956ZM95.7696 165.447L95.4817 167.426C96.8479 167.625 98.2246 167.798 99.611 167.946L99.8222 165.957L100.033 163.968C98.6983 163.826 97.3727 163.659 96.0575 163.468L95.7696 165.447ZM103.892 166.31L103.756 168.306C104.449 168.353 105.143 168.393 105.839 168.427L105.937 166.429L106.034 164.432C105.362 164.399 104.693 164.36 104.027 164.315L103.892 166.31ZM105.937 166.429L103.987 166.874C104.138 167.536 104.305 168.194 104.487 168.849L106.414 168.312L108.34 167.774C108.174 167.18 108.023 166.583 107.886 165.984L105.937 166.429ZM107.632 172.003L105.763 172.716C106.243 173.973 106.781 175.215 107.375 176.441L109.175 175.569L110.974 174.697C110.429 173.572 109.938 172.436 109.501 171.29L107.632 172.003ZM111.009 178.991L109.285 180.006C109.961 181.154 110.686 182.287 111.46 183.403L113.104 182.264L114.747 181.124C114.028 180.087 113.356 179.038 112.733 177.977L111.009 178.991ZM115.428 185.38L113.866 186.629C114.693 187.663 115.562 188.681 116.472 189.683L117.953 188.338L119.433 186.994C118.578 186.052 117.763 185.097 116.99 184.131L115.428 185.38ZM120.651 191.141L119.25 192.568C120.19 193.49 121.165 194.396 122.174 195.287L123.498 193.787L124.821 192.287C123.863 191.442 122.939 190.584 122.052 189.713L120.651 191.141ZM126.474 196.284L125.225 197.847C126.25 198.665 127.304 199.469 128.388 200.257L129.564 198.64L130.741 197.022C129.705 196.269 128.698 195.502 127.722 194.722L126.474 196.284ZM132.756 200.858L131.648 202.524C132.738 203.248 133.854 203.959 134.994 204.654L136.035 202.946L137.076 201.238C135.979 200.57 134.908 199.888 133.863 199.193L132.756 200.858ZM139.392 204.907L138.415 206.652C139.555 207.291 140.718 207.916 141.902 208.526L142.818 206.748L143.734 204.97C142.591 204.381 141.469 203.778 140.369 203.162L139.392 204.907ZM146.303 208.471L145.446 210.278C146.625 210.837 147.822 211.382 149.038 211.913L149.838 210.08L150.639 208.248C149.46 207.733 148.301 207.205 147.161 206.664L146.303 208.471ZM153.421 211.581L152.676 213.437C153.885 213.923 155.112 214.396 156.354 214.854L157.046 212.978L157.739 211.101C156.532 210.656 155.341 210.197 154.167 209.725L153.421 211.581ZM160.711 214.273L160.07 216.167C161.305 216.585 162.555 216.989 163.819 217.38L164.41 215.469L165 213.558C163.77 213.178 162.553 212.785 161.351 212.378L160.711 214.273ZM168.14 216.57L167.598 218.495C168.855 218.849 170.124 219.189 171.405 219.516L171.899 217.578L172.393 215.64C171.143 215.321 169.906 214.989 168.682 214.645L168.14 216.57ZM175.676 218.492L175.228 220.441C176.498 220.733 177.778 221.011 179.069 221.275L179.47 219.316L179.872 217.357C178.612 217.098 177.362 216.827 176.123 216.543L175.676 218.492ZM183.286 220.053L182.929 222.021C184.212 222.253 185.505 222.473 186.807 222.679L187.12 220.704L187.433 218.728C186.16 218.527 184.896 218.312 183.643 218.085L183.286 220.053ZM190.97 221.27L190.701 223.252C191.992 223.427 193.291 223.59 194.599 223.739L194.826 221.752L195.052 219.765C193.773 219.619 192.502 219.46 191.239 219.288L190.97 221.27ZM198.689 222.151L198.504 224.142C199.803 224.262 201.108 224.37 202.42 224.464L202.563 222.469L202.706 220.474C201.421 220.382 200.144 220.277 198.873 220.159L198.689 222.151ZM206.447 222.706L206.345 224.704C207.647 224.77 208.956 224.823 210.271 224.863L210.331 222.864L210.392 220.865C209.104 220.825 207.823 220.773 206.548 220.709L206.447 222.706ZM214.214 222.942L214.193 224.942C214.849 224.948 215.506 224.952 216.164 224.952V222.952V220.952C215.519 220.952 214.876 220.949 214.234 220.942L214.214 222.942ZM216.164 222.952V224.952C216.827 224.952 217.49 224.948 218.15 224.942L218.13 222.942L218.11 220.942C217.462 220.949 216.814 220.952 216.164 220.952V222.952ZM222.038 222.862L222.099 224.861C223.426 224.821 224.746 224.767 226.06 224.7L225.958 222.702L225.855 220.705C224.569 220.771 223.276 220.824 221.977 220.863L222.038 222.862ZM229.868 222.461L230.012 224.456C231.332 224.361 232.646 224.252 233.952 224.13L233.766 222.139L233.58 220.148C232.302 220.267 231.017 220.373 229.724 220.466L229.868 222.461ZM237.662 221.733L237.891 223.72C239.21 223.569 240.521 223.404 241.824 223.225L241.552 221.244L241.281 219.262C240.007 219.437 238.725 219.598 237.434 219.747L237.662 221.733ZM245.424 220.669L245.74 222.644C247.048 222.436 248.347 222.213 249.636 221.978L249.277 220.01L248.917 218.043C247.658 218.273 246.388 218.49 245.109 218.694L245.424 220.669ZM253.128 219.26L253.533 221.219C254.836 220.95 256.127 220.667 257.408 220.37L256.957 218.422L256.506 216.473C255.256 216.763 253.995 217.039 252.723 217.302L253.128 219.26ZM260.759 217.493L261.257 219.43C262.543 219.1 263.817 218.755 265.078 218.397L264.532 216.473L263.986 214.549C262.757 214.898 261.515 215.234 260.261 215.556L260.759 217.493ZM268.291 215.354L268.886 217.263C270.16 216.866 271.419 216.455 272.664 216.03L272.018 214.137L271.371 212.244C270.161 212.658 268.935 213.058 267.695 213.445L268.291 215.354ZM275.706 212.82L276.405 214.695C277.655 214.229 278.889 213.749 280.105 213.255L279.353 211.402L278.601 209.548C277.42 210.028 276.222 210.494 275.008 210.946L275.706 212.82ZM282.954 209.877L283.762 211.707C284.986 211.166 286.192 210.611 287.378 210.042L286.513 208.239L285.648 206.436C284.5 206.986 283.333 207.524 282.146 208.047L282.954 209.877ZM290.019 206.485L290.944 208.258C292.135 207.637 293.303 207.001 294.449 206.351L293.462 204.612L292.475 202.872C291.371 203.499 290.244 204.112 289.094 204.711L290.019 206.485ZM296.832 202.616L297.884 204.317C299.029 203.61 300.148 202.887 301.241 202.149L300.122 200.491L299.003 198.834C297.956 199.541 296.881 200.234 295.781 200.915L296.832 202.616ZM303.32 198.233L304.509 199.841C305.596 199.038 306.652 198.219 307.677 197.386L306.415 195.834L305.153 194.282C304.177 195.076 303.17 195.857 302.132 196.624L303.32 198.233ZM309.391 193.289L310.729 194.776C311.738 193.868 312.711 192.945 313.647 192.005L312.231 190.593L310.814 189.181C309.93 190.068 309.01 190.942 308.053 191.803L309.391 193.289ZM314.914 187.741L316.411 189.067C317.315 188.046 318.177 187.009 318.995 185.955L317.416 184.728L315.836 183.501C315.072 184.485 314.265 185.456 313.416 186.415L314.914 187.741ZM319.709 181.555L321.371 182.669C322.133 181.531 322.845 180.377 323.505 179.207L321.764 178.224L320.022 177.241C319.413 178.319 318.755 179.387 318.048 180.442L319.709 181.555ZM323.547 174.741L325.364 175.577C325.937 174.33 326.453 173.067 326.909 171.79L325.025 171.118L323.141 170.446C322.726 171.61 322.255 172.763 321.73 173.905L323.547 174.741ZM326.166 167.374L328.105 167.865C328.442 166.535 328.715 165.192 328.92 163.836L326.942 163.537L324.965 163.237C324.78 164.462 324.533 165.677 324.228 166.882L326.166 167.374ZM327.335 159.644L329.332 159.744C329.366 159.059 329.384 158.372 329.384 157.682H327.384H325.384C325.384 158.305 325.368 158.925 325.337 159.543L327.335 159.644ZM327.384 157.682H329.384C329.384 156.993 329.366 156.305 329.332 155.62L327.335 155.721L325.337 155.821C325.368 156.439 325.384 157.06 325.384 157.682H327.384ZM326.942 151.828L328.92 151.528C328.715 150.173 328.442 148.829 328.105 147.499L326.166 147.991L324.228 148.483C324.533 149.688 324.78 150.903 324.965 152.127L326.942 151.828ZM325.025 144.246L326.909 143.575C326.453 142.297 325.937 141.035 325.364 139.788L323.547 140.624L321.73 141.46C322.255 142.602 322.726 143.755 323.141 144.918L325.025 144.246ZM321.764 137.141L323.505 136.157C322.845 134.987 322.133 133.833 321.371 132.696L319.709 133.809L318.048 134.922C318.755 135.978 319.413 137.045 320.022 138.124L321.764 137.141ZM317.416 130.636L318.995 129.409C318.177 128.356 317.315 127.318 316.411 126.298L314.914 127.624L313.417 128.95C314.265 129.908 315.072 130.88 315.836 131.863L317.416 130.636ZM312.231 124.771L313.647 123.359C312.711 122.42 311.738 121.496 310.729 120.589L309.391 122.075L308.053 123.562C309.01 124.423 309.93 125.297 310.814 126.183L312.231 124.771ZM306.415 119.531L307.677 117.979C306.652 117.145 305.596 116.326 304.509 115.524L303.321 117.132L302.132 118.74C303.17 119.507 304.177 120.288 305.153 121.082L306.415 119.531ZM300.122 114.873L301.241 113.215C300.148 112.478 299.029 111.755 297.884 111.047L296.832 112.749L295.781 114.45C296.881 115.13 297.956 115.824 299.003 116.531L300.122 114.873ZM293.462 110.753L294.449 109.013C293.303 108.363 292.135 107.728 290.944 107.107L290.019 108.88L289.095 110.653C290.244 111.253 291.371 111.866 292.475 112.492L293.462 110.753ZM286.513 107.126L287.378 105.322C286.192 104.753 284.986 104.198 283.762 103.658L282.954 105.488L282.146 107.317C283.333 107.841 284.5 108.378 285.648 108.929L286.513 107.126ZM279.353 103.963L280.105 102.11C278.889 101.616 277.655 101.136 276.405 100.67L275.706 102.544L275.008 104.418C276.222 104.871 277.42 105.337 278.601 105.816L279.353 103.963ZM272.018 101.228L272.664 99.3349C271.419 98.91 270.16 98.4987 268.887 98.1014L268.291 100.011L267.695 101.92C268.935 102.307 270.161 102.707 271.371 103.12L272.018 101.228ZM264.532 98.8915L265.078 96.9675C263.817 96.6095 262.543 96.265 261.257 95.9342L260.759 97.8712L260.261 99.8082C261.515 100.131 262.757 100.467 263.986 100.815L264.532 98.8915ZM256.957 96.9426L257.408 94.9941C256.127 94.6978 254.836 94.4148 253.533 94.1455L253.128 96.1041L252.723 98.0627C253.995 98.3256 255.256 98.6019 256.506 98.8911L256.957 96.9426ZM249.277 95.3544L249.637 93.3869C248.347 93.1513 247.048 92.9289 245.74 92.7201L245.424 94.6951L245.109 96.6701C246.388 96.8742 247.658 97.0915 248.917 97.3218L249.277 95.3544ZM241.552 94.121L241.824 92.1395C240.521 91.961 239.21 91.7958 237.891 91.6442L237.663 93.6311L237.434 95.6181C238.725 95.7664 240.007 95.9279 241.281 96.1025L241.552 94.121ZM233.766 93.2256L233.952 91.2342C232.646 91.1124 231.332 91.0037 230.012 90.9085L229.868 92.9033L229.724 94.8981C231.017 94.9913 232.302 95.0977 233.58 95.2169L233.766 93.2256ZM225.958 92.6623L226.06 90.6649C224.746 90.5977 223.426 90.5437 222.1 90.5032L222.038 92.5022L221.977 94.5013C223.276 94.541 224.569 94.5938 225.855 94.6597L225.958 92.6623ZM218.13 92.4227L218.15 90.4228C217.49 90.4161 216.827 90.4128 216.164 90.4128V92.4128V94.4128C216.814 94.4128 217.462 94.4161 218.11 94.4226L218.13 92.4227ZM216.164 92.4128V90.4128C215.48 90.4128 214.798 90.4163 214.117 90.4235L214.138 92.4234L214.159 94.4233C214.826 94.4163 215.494 94.4128 216.164 94.4128V92.4128ZM210.087 92.5086L210.024 90.5096C208.654 90.5529 207.29 90.6106 205.933 90.6825L206.039 92.6797L206.145 94.6769C207.473 94.6065 208.808 94.55 210.15 94.5076L210.087 92.5086ZM201.995 92.9375L201.846 90.9431C201.164 90.994 200.484 91.0485 199.805 91.1066L199.976 93.0993L200.146 95.092C200.81 95.0352 201.476 94.9818 202.144 94.932L201.995 92.9375ZM199.976 93.0993L201.976 93.1046C201.976 93.1007 201.976 93.0948 201.976 93.0856L199.976 93.058L197.976 93.0304C197.976 93.0487 197.976 93.0704 197.976 93.094L199.976 93.0993ZM199.977 92.9755L201.977 93.0005C201.977 92.9812 201.978 92.9587 201.978 92.9342H199.978H197.978C197.978 92.9372 197.978 92.9422 197.977 92.9505L199.977 92.9755ZM199.978 92.9342L201.978 92.9342C201.978 92.2432 201.966 91.5543 201.944 90.8676L199.945 90.932L197.946 90.9963C197.967 91.6402 197.978 92.2862 197.978 92.9342L199.978 92.9342ZM199.688 86.9471L201.679 86.7539C201.546 85.3805 201.368 84.0174 201.148 82.6657L199.174 82.9871L197.2 83.3086C197.407 84.5756 197.573 85.8531 197.698 87.1403L199.688 86.9471ZM198.406 79.0685L200.355 78.6206C200.047 77.2792 199.696 75.9505 199.304 74.6357L197.387 75.2069L195.471 75.7782C195.838 77.0122 196.167 78.2585 196.456 79.5164L198.406 79.0685ZM196.126 71.4173L198.003 70.7267C197.53 69.4386 197.016 68.1654 196.463 66.9082L194.632 67.713L192.801 68.5179C193.321 69.7007 193.804 70.8976 194.249 72.1078L196.126 71.4173ZM192.915 64.1069L194.694 63.1932C194.069 61.9761 193.407 60.7757 192.709 59.5931L190.986 60.6095L189.264 61.626C189.923 62.742 190.547 63.8738 191.136 65.0205L192.915 64.1069ZM188.859 57.2297L190.521 56.1166C189.761 54.9829 188.968 53.8675 188.142 52.7713L186.545 53.9748L184.947 55.1782C185.729 56.216 186.479 57.2712 187.197 58.3428L188.859 57.2297ZM184.056 50.851L185.586 49.5634C184.71 48.5216 183.803 47.4994 182.867 46.4976L181.405 47.8633L179.944 49.229C180.834 50.1805 181.694 51.1507 182.526 52.1386L184.056 50.851ZM178.605 45.0159L179.995 43.5778C179.017 42.6334 178.013 41.7095 176.982 40.8071L175.665 42.3118L174.347 43.8165C175.329 44.6761 176.285 45.5555 177.215 46.4539L178.605 45.0159ZM172.597 39.7536L173.841 38.1875C172.779 37.3436 171.692 36.5211 170.582 35.7208L169.412 37.3433L168.243 38.9657C169.303 39.7299 170.34 40.5148 171.353 41.3197L172.597 39.7536ZM166.119 35.0822L167.214 33.4082C166.079 32.6666 164.924 31.9471 163.747 31.2505L162.728 32.9715L161.709 34.6924C162.835 35.359 163.941 36.0472 165.025 36.7561L166.119 35.0822ZM159.247 31.0119L160.191 29.2482C158.997 28.6097 157.784 27.994 156.553 27.4017L155.685 29.204L154.818 31.0062C155.998 31.574 157.161 32.164 158.304 32.7755L159.247 31.0119ZM152.05 27.5481L152.841 25.7111C151.598 25.1761 150.339 24.6643 149.064 24.1765L148.349 26.0444L147.635 27.9124C148.859 28.3807 150.067 28.8718 151.259 29.3851L152.05 27.5481ZM144.59 24.693L145.228 22.7976C143.947 22.366 142.651 21.958 141.341 21.5744L140.779 23.4938L140.217 25.4131C141.476 25.7818 142.721 26.1738 143.952 26.5884L144.59 24.693ZM136.924 22.4465L137.41 20.5065C136.099 20.1779 134.775 19.8734 133.44 19.5935L133.029 21.5509L132.619 23.5084C133.904 23.7777 135.177 24.0706 136.437 24.3865L136.924 22.4465ZM129.103 20.8066L129.438 18.8348C128.107 18.6089 126.766 18.4072 125.414 18.2304L125.155 20.2135L124.895 22.1966C126.196 22.3668 127.487 22.5609 128.768 22.7784L129.103 20.8066ZM121.187 19.7701L121.372 17.7786C120.028 17.654 118.676 17.5537 117.315 17.4785L117.205 19.4755L117.094 21.4724C118.405 21.5449 119.708 21.6414 121.002 21.7615L121.187 19.7701ZM113.214 19.3286L113.251 17.3289C112.572 17.3165 111.892 17.3102 111.21 17.3102V19.3102V21.3102C111.867 21.3102 112.523 21.3163 113.177 21.3283L113.214 19.3286Z" fill="#E96600" mask="url(#path-2-inside-1_362_802)"/>
<defs>
<filter id="filter0_d_362_802" x="0" y="0" width="353.905" height="245.577" filterUnits="userSpaceOnUse" color-interpolation-filters="sRGB">
<feFlood flood-opacity="0" result="BackgroundImageFix"/>
<feColorMatrix in="SourceAlpha" type="matrix" values="0 0 0 0 0 0 0 0 0 0 0 0 0 0 0 0 0 0 127 0" result="hardAlpha"/>
<feMorphology radius="2" operator="dilate" in="SourceAlpha" result="effect1_dropShadow_362_802"/>
<feOffset/>
<feGaussianBlur stdDeviation="5"/>
<feComposite in2="hardAlpha" operator="out"/>
<feColorMatrix type="matrix" values="0 0 0 0 0.326923 0 0 0 0 0.326923 0 0 0 0 0.326923 0 0 0 0.25 0"/>
<feBlend mode="normal" in2="BackgroundImageFix" result="effect1_dropShadow_362_802"/>
<feBlend mode="normal" in="SourceGraphic" in2="effect1_dropShadow_362_802" result="shape"/>
</filter>
</defs>
</svg>
