<svg width="228" height="162" viewBox="0 0 228 162" fill="none" xmlns="http://www.w3.org/2000/svg">
<path d="M113 0C131.486 0 147.628 10.0336 156.28 24.9512C162.849 21.7785 170.217 20 178 20C205.614 20 228 42.3858 228 70C228 97.4611 205.862 119.751 178.459 119.997C171.92 144.019 145.321 162 113.5 162C81.6702 162 55.0638 144.009 48.5342 119.978C21.5979 119.202 0 97.1239 0 70C0 42.3858 22.3858 20 50 20C57.168 20 63.9822 21.5119 70.1455 24.2285C78.8952 9.71017 94.8134 0 113 0Z" fill="white"/>
</svg>
