<svg width="155" height="65" viewBox="0 0 155 65" fill="none" xmlns="http://www.w3.org/2000/svg">
<path d="M154 17.841C154 38.206 134.991 64.1384 88.9868 64.1384C42.9825 64.1384 0 52.9556 0 32.5906C0 12.2256 27.9482 1.45197 73.9525 1.45197C119.957 1.45197 154 -2.52399 154 17.841Z" fill="white"/>
<path d="M22.5346 6.73697C36.8372 1.77263 53.2968 0.318934 68.1973 0.0401684C70.0465 0.0122945 69.915 0.119455 70.4263 0.125241C71.8222 0.145435 72.6725 0.0231565 73.708 0.0305036C73.7895 0.0311159 73.871 0.0317554 73.9525 0.0324223C78.8187 0.0725539 83.3834 0.0474844 88.1648 0.0270878C93.1505 0.00364804 90.8135 0.345783 92.5507 0.399587C95.9388 0.504115 93.0558 0.133902 94.3818 0.0246506C98.2952 -0.00241268 102.232 -0.0093565 106.133 0.0146552C105.177 0.0578403 104.238 0.101939 103.265 0.145698C104.981 0.138844 107.383 0.189015 104.557 0.313538C105.189 0.33836 105.757 0.369176 106.421 0.394607C106.613 0.243241 109.603 0.22423 109.893 0.138428C110.164 0.0500298 108.473 0.0704254 108.485 0.0633143C108.571 -0.0584015 115.59 0.128767 116.062 0.165936C117.397 0.222451 116.223 0.384783 117.363 0.395625C119.317 0.421969 117.999 0.00734568 120.642 0.589093C121.703 0.465064 121.769 0.550246 123.104 0.621641C123.281 0.631336 123.148 0.531195 123.226 0.532415C125.252 0.563944 123.69 0.659894 123.7 0.66985C123.887 0.836666 126.006 0.885443 126.483 0.937315C132.151 1.56646 136.336 2.05947 142.13 3.78686C143.387 4.10868 147.115 5.61831 148.124 6.41258C149.174 7.14045 148.539 6.85678 149.036 7.28192C150.004 7.69872 150.957 8.30247 152.171 10.3606C152.807 11.0097 152.674 10.9613 153.387 12.5151C153.986 13.7907 154.648 16.2435 154.397 17.841C154.36 16.0254 154.31 16.2167 153.865 14.2806C153.788 13.9491 153.291 12.0842 152.298 10.6244C151.342 9.14238 150.07 8.13635 150.199 8.38381C150.348 8.59741 151.884 10.2584 151.877 10.3758C152.056 10.8593 151.281 9.89028 150.55 9.06856C150.757 9.25255 150.994 9.48499 151.198 9.69913C149.621 7.75079 150.452 9.39957 149.354 7.76934C149.207 7.57567 149.322 7.58369 149.051 7.29848C148.973 7.2717 149.309 7.60835 148.978 7.37265C148.649 7.13252 148.033 6.57887 147.88 6.61054C147.654 6.62673 149.128 7.55976 149.199 7.65914C149.201 7.65926 149.202 7.65937 149.204 7.6595C150.047 8.4277 148.18 6.97686 148.041 6.95353C147.365 6.63851 147.769 6.9576 146.779 6.48055C146.198 6.19199 144.789 5.51209 144.226 5.31664C143.686 5.1188 144.491 5.51457 144.126 5.38641C143.763 5.25852 143.324 5.0366 142.87 4.90005C142.677 4.84221 142.657 4.9204 142.569 4.89393C141.603 4.61372 142.289 4.65458 141.391 4.39461C140.778 4.21024 138.818 3.88637 140.143 4.26675C139.505 4.11801 138.835 3.97358 138.188 3.84864C138.577 3.95578 139.029 4.07456 139.417 4.19717C138.174 3.86297 137.629 3.9002 136.839 3.75896C136.034 3.61916 135.405 3.34657 134.518 3.29348C132.648 3.18047 137.212 3.80079 137.75 3.98689C137.963 4.042 137.112 4.00111 136.979 3.98143C136.397 3.88601 135.737 3.6789 135.3 3.61263C133.693 3.37232 132.734 3.37164 131.172 3.22111C125.992 2.72333 119.425 2.58108 114.434 2.55411C112.545 2.54229 111.46 2.40361 110.612 2.40485C108.621 2.41086 108.43 2.53132 106.702 2.54408C104.159 2.56401 100.588 2.49775 98.4364 2.50213C96.9829 2.50442 95.6429 2.63729 95.2568 2.64513C89.9341 2.75815 83.4451 2.83934 79.0358 2.86249C76.9519 2.87472 75.9778 2.74619 75.5444 2.75109C74.5882 2.76113 74.2562 2.79447 73.9525 2.82351C73.6694 2.85071 73.4093 2.8734 72.6878 2.87093C71.8816 2.86884 71.7323 2.76474 71.6247 2.76127C70.6802 2.73452 70.4957 2.8759 69.7662 2.89072C65.5081 2.98091 61.423 3.04509 57.2445 3.30903C56.9374 3.32853 56.9606 3.26549 56.7623 3.28223C55.9135 3.35686 56.314 3.42489 55.4327 3.49724C53.6279 3.64815 51.7044 3.80196 49.7851 3.99152C49.5909 4.01083 49.4948 3.94126 49.0528 3.98932C48.6109 4.03783 48.2846 4.14918 47.5991 4.22543C45.8072 4.42602 44.023 4.57294 42.1125 4.86083C41.7966 4.90864 41.4217 5.0634 40.9545 5.13803C39.503 5.36587 37.2906 5.68117 36.0399 5.93412C31.9044 6.76075 28.1496 7.78009 24.4061 9.03651C23.5162 9.3358 22.7453 9.52187 22.2775 9.69345C21.2492 10.0762 22.0471 9.85965 21.0243 10.2583C12.8282 13.4954 4.45316 18.7415 2.00033 27.2779C1.53412 28.882 1.28587 30.7294 1.30863 32.5906C1.32161 34.4549 1.76749 36.2438 2.40974 37.7508C2.94672 38.9658 2.99698 39.2381 3.49989 40.0527C4.46734 41.488 4.79933 41.6576 6.04031 42.9725C7.07353 44.0339 8.26157 45.2484 9.52468 46.1714C10.7906 47.0851 11.4922 47.3829 13.0172 48.2857C14.3074 49.0468 16.1215 50.0799 17.586 50.7574C31.2719 56.9382 46.1763 59.5128 61.2836 61.3114C66.6328 61.9204 72.596 62.3227 78.1564 62.6763C78.679 62.709 77.8722 62.8194 79.5529 62.8496C80.4612 62.8638 81.7114 62.7861 83.7985 62.8196C85.5167 62.8465 87.239 62.8633 88.9868 62.868C99.7339 62.9141 111.12 61.5789 121.112 57.683C138.836 51.263 152 34.4612 153.275 18.2764C153.351 17.4925 153.697 17.9139 153.789 18.3964C153.711 18.8399 153.612 19.2489 153.507 19.7113C153.892 20.3162 153.837 20.2194 153.533 22.3797C153.317 23.7074 153.657 22.67 153.598 23.3921C153.59 24.329 152.678 28.6628 152.605 27.7582C152.578 28.0311 152.551 28.2845 152.519 28.5525C151.61 31.6081 150.389 34.4816 148.874 37.2224C148.61 37.6965 148.671 37.7688 148.391 38.2477C147.625 39.5426 146.901 40.4876 145.964 41.7354C145.458 42.3985 145.471 42.5559 144.757 43.4065C144.033 44.2472 143.963 44.1282 143.048 45.3457C143.859 44.766 140.739 47.8349 139.534 48.8263C139.359 48.99 138.07 50.2913 137.256 50.8879C136.479 51.4714 135.186 52.3003 133.964 53.1786C133.385 53.5945 133.072 53.9425 132.423 54.3528C131.967 54.6403 131.352 54.8815 130.748 55.2223C130.135 55.5749 128.895 56.3443 128.643 56.4726C127.766 56.9322 128.703 56.3635 128.098 56.6694C125.202 58.1363 121.698 59.5269 118.663 60.5756C118.297 60.703 118.835 60.6211 118.787 60.6399C116.303 61.5592 117.607 61.01 116.899 61.1476C116.2 61.325 111.279 62.6286 111.281 62.7532C111.088 62.5963 110.014 62.9836 109.721 63.0475C108.587 63.2993 108.781 63.0873 107.709 63.3398C107.314 63.4309 108.11 63.4037 107.682 63.4782C106.63 63.6592 105.589 63.6454 104.195 63.826C103.853 63.8695 103.755 63.9677 103.142 64.0458C102.524 64.1331 99.9338 64.3143 101.136 64.358C99.5766 64.3828 99.2743 64.4917 97.4258 64.6309C96.9666 64.6631 96.3777 64.5723 95.3982 64.6681C95.0665 64.7001 95.0835 64.8282 94.5796 64.8537C93.4106 64.9111 92.3555 64.8155 90.8998 64.8343C90.2756 64.8419 89.6372 64.8502 88.9868 64.8559C86.8408 64.8755 84.6356 64.9002 82.4545 64.824C81.6876 64.7964 81.8818 64.6732 80.769 64.6393C80.6087 64.6352 79.2544 64.7046 78.4843 64.6643C78.0182 64.6433 75.6271 64.4608 75.1373 64.4272C74.335 64.3767 74.1857 64.493 73.7481 64.4448C72.4851 64.303 73.5111 64.1793 71.9755 64.3387C71.4807 64.169 70.585 64.1241 70.3114 63.9332C69.7795 64.0851 69.1193 63.8583 68.1143 63.8445C67.1064 63.8305 66.2437 64.1225 66.0345 63.7117C65.5571 63.7211 63.5655 63.6211 63.2206 63.5916C62.2208 63.5108 62.7648 63.4555 62.0122 63.3946C61.8801 63.3833 62.0099 63.4722 61.1648 63.3765C60.6183 63.3238 56.537 62.8422 56.3058 62.7934C53.5656 62.323 57.8126 62.9157 58.4289 62.8978C58.5325 62.9312 58.635 62.9644 58.746 62.9982C59.9731 63.1738 59.2902 62.9278 58.7378 62.8249C58.185 62.7223 57.1409 62.671 56.6897 62.5586C56.4649 62.5023 56.6306 62.3219 57.3193 62.431C56.5868 62.2786 57.6053 62.3382 57.3197 62.2445C57.0095 62.1491 53.6811 61.6898 53.6496 61.7909C54.2693 61.8816 55.0462 61.9826 55.6795 62.0694C56.4854 62.3664 53.8671 62.6981 51.6342 62.0964C49.9946 61.6526 52.752 61.9364 48.8078 61.4702C49.4059 61.5761 49.913 61.675 50.4617 61.7685C50.4978 61.9202 49.6307 61.6242 49.1677 61.595C48.944 61.5818 50.2826 61.9005 49.1011 61.7446C48.1314 61.3772 47.3063 61.4522 45.6111 61.149C46.0876 61.1981 46.5666 61.2459 47.0471 61.292C44.1994 60.6402 50.8779 61.7645 45.316 60.6963C45.9827 60.8118 46.6492 60.9322 47.3289 61.0389C47.0134 60.9078 47.5763 60.7797 47.2906 60.6828C46.5415 60.429 45.3996 60.2995 44.4817 60.1146C44.08 60.0339 44.3409 60.0223 44.3071 60.0156C43.7467 59.9019 43.8535 60.0118 43.361 59.9216C42.7378 59.8097 40.9927 59.3637 40.7107 59.3113C39.9607 59.177 41.1611 59.6097 41.0849 59.606C40.6066 59.5926 39.6346 59.3103 39.6657 59.4291C41.9939 59.8882 48.7363 61.234 42.5935 60.2487C44.2505 60.753 43.7032 60.9074 41.2874 60.4333C39.2989 60.0312 40.5969 60.2053 39.5782 59.8753C39.4353 59.8362 36.8073 59.1822 36.6455 59.2157C36.7931 59.0709 35.9587 58.7098 36.5853 58.6747C36.6813 58.6716 37.7616 58.9369 37.4174 58.7063C37.2501 58.5923 36.736 58.306 36.8466 58.2366C36.6062 58.2456 36.3541 58.2595 36.1106 58.2694C34.4738 57.8848 34.2854 57.7582 33.4238 57.4065C33.4516 57.4658 34.2229 57.8908 32.9863 57.494C32.9236 57.4728 32.886 57.3853 32.2667 57.1758C31.0197 56.7505 30.772 56.6512 31.7951 56.71C29.1528 56.0852 28.6747 55.6832 25.9926 54.8646C26.4288 55.3117 27.3756 55.5755 29.8404 56.2601C29.9281 56.3575 29.9593 56.4373 30.0508 56.5363C26.8181 55.391 28.4666 55.9115 26.5625 55.4412C26.0878 55.3284 23.7553 54.4652 24.473 54.9238C24.6373 55.0342 26.116 55.538 25.9254 55.5468C25.8791 55.5499 24.0958 54.9641 23.9328 54.8802C22.027 53.9126 25.5847 55.1567 20.1741 53.0892C20.026 53.0297 19.9415 53.0852 19.6511 52.9741C19.1066 52.7641 19.1416 52.6734 18.6591 52.4844C18.1619 52.288 17.4376 52.1009 16.7866 51.6538C15.587 50.8316 18.7146 52.2103 20.0374 52.8671C20.6575 53.0114 11.0385 48.1937 10.6363 47.6029C8.20956 46.0649 12.2165 48.7382 12.3992 48.8731C12.4722 48.9532 12.1964 49.2986 13.4114 49.6777C13.7677 49.7886 12.5 48.9334 13.3097 49.349C14.1261 49.7617 13.7525 49.6913 13.8051 49.7319C13.9862 49.8701 14.8388 50.2783 14.9442 50.3518C16.5474 51.4758 16.1672 51.7681 14.2096 50.0428C13.1831 49.6373 15.294 51.032 14.0466 50.4613C12.5011 49.7479 11.5667 48.9217 11.3991 48.8071C9.31157 47.316 11.5842 49.1993 9.0969 47.3588C7.72145 46.2798 11.2978 48.7606 8.11201 46.4002C5.56861 44.3153 6.87916 45.5084 6.54198 45.5324C6.46651 45.5343 5.0558 44.3682 6.94009 46.0009C7.03221 46.0024 7.18453 46.0303 7.34246 46.0911C7.76974 46.5058 8.39395 47.3524 8.65921 47.5569C9.9252 48.5323 9.936 48.3352 10.6292 49.0077C10.1673 48.4735 11.0344 49.1813 11.3955 49.3526C12.7585 49.9903 11.0618 48.9666 13.9226 50.8044C13.5887 50.5184 13.2772 50.2414 12.9495 49.9476C13.3053 50.1487 13.6691 50.3482 14.0153 50.5331C14.4298 50.9977 16.386 51.9683 14.5435 51.2463C16.6382 52.4011 17.4908 52.7074 18.0402 52.791C18.1408 52.8037 18.4806 52.9438 18.8493 53.1018C18.7963 53.0304 18.7613 52.866 18.8267 52.8764C19.4065 52.9721 20.1396 53.5551 19.8187 53.5254C20.0834 53.642 20.2947 53.735 20.3691 53.7682C20.8416 53.979 19.8712 53.6739 20.2468 53.8616C20.3705 53.927 21.7304 54.451 21.7368 54.4886C21.8314 54.7573 19.6245 53.7764 24.0889 55.5782C24.2677 55.4272 22.1506 54.6915 22.7685 54.6843C23.4218 54.6794 24.5005 55.406 24.8436 55.2156C24.922 55.2939 24.9507 55.3462 25.0143 55.4262C26.8685 55.9309 26.8466 56.1651 27.3811 56.3968C28.4098 56.8603 33.5073 58.3235 29.014 56.7805C29.6806 56.9619 30.3789 57.1576 31.0295 57.3242C31.0661 57.7798 30.6841 57.5243 33.8898 58.4455C34.5854 58.6412 34.7689 58.8853 35.5196 58.8378C35.3672 59.0334 37.52 59.4138 37.6986 59.4786C38.9255 59.9522 34.1637 59.0724 33.6922 58.5188C32.8671 58.4599 32.9144 58.2631 32.0329 58.0493C30.759 57.7341 30.5969 57.7317 29.1303 57.1358C27.603 56.923 34.849 58.8767 30.4053 57.9023C28.1752 57.3816 20.5908 55.3556 13.4114 51.5365C6.07695 47.9887 0.224433 41.0673 -0.52599 37.6422C-1.12951 35.9172 -1.39208 34.2109 -1.40145 32.5906C-1.2923 23.6762 2.85122 17.8956 9.97278 12.8755C10.7368 12.1342 17.5598 8.5679 16.2568 9.54628C16.0418 9.66939 13.208 11.2246 15.7698 10.1375C15.2059 10.2877 16.66 9.49502 16.7911 9.42791C19.5703 7.91003 17.8445 8.48187 22.5346 6.73697ZM37.2124 5.13027C30.9599 6.34453 35.5751 5.56878 34.3606 6.19518C35.1478 6.02574 35.9521 5.86145 36.7576 5.7054C36.5479 5.72278 36.3274 5.7429 36.112 5.76254C36.1111 5.76272 36.1102 5.7629 36.1093 5.76309C36.4831 5.54894 36.848 5.3386 37.2124 5.13027ZM141.123 4.77765C140.876 4.75676 140.612 4.734 140.357 4.71486C139.592 4.49456 138.751 4.28158 137.963 4.10122C138.065 4.08903 138.164 4.07599 138.265 4.06424C139.248 4.27827 140.158 4.50379 141.123 4.77765ZM20.8839 53.1609C21.9644 53.7415 21.9124 53.4676 23.363 54.132C23.2421 53.8977 23.1018 53.6595 22.9749 53.4232C21.8565 53.0217 21.5771 52.9853 20.385 52.443C20.5025 52.5542 20.6241 52.6669 20.7402 52.7769C20.9467 52.8489 21.1682 52.9241 21.3701 52.9938C21.6216 53.2711 19.6665 52.4928 20.8798 53.1596C20.8812 53.16 20.8825 53.1604 20.8839 53.1609ZM32.475 56.9692C33.0972 57.1712 35.5214 57.8871 35.8824 57.8947C37.0703 57.9527 30.121 56.311 35.2694 57.4195C35.2546 57.3797 35.2863 57.3524 35.2948 57.3189C34.3729 57.0736 33.4471 56.8192 32.5109 56.5512C32.5244 56.6979 32.4549 56.82 32.475 56.9692ZM15.454 12.152C14.5175 12.541 10.6995 15.1063 12.0502 14.436C12.4239 14.2308 14.0829 12.9625 14.7832 12.6081C15.2383 12.3701 14.7858 12.7486 15.6651 12.2344C15.6019 12.2058 15.5482 12.1655 15.4517 12.1536C15.4524 12.1531 15.4532 12.1526 15.454 12.152ZM16.7734 10.6869C15.8535 11.1512 14.955 11.6443 14.0606 12.1699C14.7837 11.9201 16.0554 11.1709 16.2201 11.3149C15.9769 11.4525 15.7394 11.5896 15.5021 11.7292C15.2975 11.7862 15.0805 11.8512 14.8731 11.9128C14.1476 12.4322 14.6308 12.209 13.2134 12.9958C14.2128 12.7717 14.4294 12.7695 16.7746 11.2687C16.3712 11.6509 17.0484 11.8878 18.2808 10.9124C18.5111 10.7298 17.4099 11.1802 17.3851 11.1829C17.1543 11.137 17.7352 10.7677 17.4959 10.7342C17.3861 10.7181 16.7092 11.0401 16.5746 11.0152C16.5091 11.0012 17.103 10.5894 16.7734 10.6869ZM18.909 10.4896C18.6506 10.6943 19.7302 10.4385 20.5601 10.0642C21.8686 9.47815 19.6997 10.1244 18.909 10.4896ZM141.129 4.77899C141.127 4.77855 141.125 4.7781 141.123 4.77765C141.124 4.77772 141.125 4.7778 141.126 4.77788C141.127 4.77825 141.128 4.77863 141.129 4.77899ZM29.3273 55.9574C30.0747 56.1114 31.1494 56.4325 31.0977 56.2985C31.4399 56.4203 31.7886 56.5419 32.1357 56.6617C32.1415 56.6277 32.1441 56.5928 32.1498 56.5592C31.1011 56.2451 30.0469 55.9147 28.9976 55.5684C29.1024 55.6966 29.1979 55.8222 29.3273 55.9574ZM40.9861 59.0052C42.3342 59.2987 41.2332 58.9105 41.545 58.899C41.8549 58.8883 43.0557 59.1921 42.9346 59.0577C42.1295 58.8932 41.3114 58.7199 40.4987 58.5415C40.6901 58.7021 40.8156 58.8505 40.9888 59.0058C40.9879 59.0056 40.987 59.0054 40.9861 59.0052ZM63.0711 2.48794C62.1253 2.4949 62.5282 2.35447 60.6546 2.58542C60.656 2.58535 60.6574 2.58528 60.6588 2.58521C62.4383 2.59012 64.7266 2.58734 66.6683 2.44358C65.4891 2.35051 64.5496 2.48094 63.0711 2.48794ZM18.0099 51.5325C17.6046 51.4523 19.2729 52.2971 19.6686 52.3648C20.3207 52.4929 18.6281 51.6691 18.0099 51.5325ZM101.302 1.17731C102.734 0.874265 100.005 0.576151 97.1508 0.753006C96.9067 0.768232 98.7379 0.837321 98.1966 0.90038C98.1427 0.90654 97.1372 0.912202 96.8868 0.955595C96.6371 0.999033 96.9013 1.08907 96.4912 1.13353C95.7729 1.2112 94.1253 1.10605 93.5988 1.20297C93.5292 1.21595 94.5317 1.3276 94.5955 1.33152C95.6465 1.39319 96.6427 1.21706 96.8025 1.21396C97.6252 1.19789 97.5014 1.32756 97.7095 1.35505C98.0986 1.40677 98.7905 1.34181 98.842 1.34542C100.101 1.44263 97.2348 1.44492 96.8548 1.49639C95.8158 1.63439 96.7836 1.73742 94.2776 1.84077C94.0454 1.85047 91.2193 1.88038 94.7801 1.9766C87.7817 2.36849 98.3145 2.09829 99.4604 2.02188C99.9906 1.98523 99.1858 1.87252 99.507 1.81387C100.242 1.67955 101.48 1.64435 101.367 1.46852C101.127 1.09854 99.4953 1.36024 98.3531 1.31177C98.4683 1.22952 98.5158 1.15009 98.7359 1.06835C98.4008 1.17836 101.205 1.1994 101.302 1.17804C101.302 1.1778 101.302 1.17756 101.302 1.17731ZM83.5315 1.81838C81.9378 1.72072 82.0678 1.95457 80.6217 1.83107C79.3494 2.05112 81.8616 2.01905 82.1489 2.02786C83.4876 2.06935 83.4671 2.29896 84.8332 2.21448C84.3623 2.0836 83.977 1.95025 83.5315 1.81838ZM97.2535 1.74679C96.2046 1.87906 98.084 1.85325 98.1576 1.87524C98.9981 2.10557 93.3516 2.131 97.2535 1.74679ZM10.0379 14.9425C9.60918 15.2498 9.95067 15.1369 9.59453 15.4486C9.22412 15.7591 7.95327 16.6961 8.02955 16.7346C8.10239 16.7454 10.4469 15.0537 8.24652 16.937C8.3482 16.9014 8.34224 16.9461 8.4023 16.9417C8.99133 16.4337 9.64062 15.9193 10.2774 15.4511C9.86749 15.6107 9.41949 15.8029 9.02036 15.9814C9.31809 15.6257 9.59819 15.5613 9.61678 15.5466C9.61671 15.5465 9.61663 15.5464 9.61656 15.5463C10.2765 15.0282 11.0134 14.2647 10.0379 14.9425ZM49.9065 3.19731C50.037 2.89638 48.8026 3.34685 48.296 3.44119C47.7861 3.53397 47.0756 3.51279 47.3526 3.60336C48.1808 3.58755 49.8895 3.22962 49.9065 3.19694C49.9065 3.19707 49.9065 3.19719 49.9065 3.19731ZM74.9584 1.86798C74.4732 1.89384 74.1923 1.9198 73.9525 1.93844C73.5352 1.97115 73.2406 1.98063 72.212 1.93258C72.2751 2.00114 72.3382 2.07123 72.4013 2.13879C73.2201 2.13564 73.4836 2.0551 73.9525 2.01675C74.2204 1.99496 74.5552 1.98704 75.0985 2.01556C75.343 2.02841 74.8204 2.18944 75.9229 2.13577C75.6021 2.05122 75.2766 1.95711 74.9584 1.86798ZM68.4014 2.17829C69.9264 2.13986 71.1321 1.56286 68.3211 1.86306C67.9063 1.90915 67.2597 2.2102 68.4014 2.17829ZM22.3984 8.59469C19.9591 9.48768 22.7589 8.52776 23.4028 8.40711C17.8198 10.5392 24.0115 8.11976 24.697 8.24555C25.3665 7.93836 26.5977 7.36102 25.1493 7.7657C24.5488 7.93786 24.7857 7.95127 24.7518 7.96163C23.6242 8.31413 23.7089 8.13483 22.3984 8.59469ZM86.2675 1.77613C86.1709 1.78141 86.3234 1.87603 86.0159 1.8987C85.7084 1.92127 85.0078 1.86134 84.9387 1.92113C84.8719 1.98141 86.2714 2.01246 86.703 1.96401C87.1399 1.9152 87.145 1.7291 86.2675 1.77613ZM76.3603 1.61351C75.0703 1.68622 77.1815 2.03548 77.4589 2.03212C79.9116 2.00252 76.2908 1.72731 76.3603 1.61351ZM27.9235 6.19303C24.9617 7.24672 27.2751 6.87167 29.174 6.55532C29.4126 6.45172 29.6595 6.34697 29.8983 6.24582C28.8182 6.77708 26.908 7.49836 31.2546 6.1696C28.8415 6.72176 30.8445 6.15005 30.8501 6.13614C31.0291 5.63753 27.4744 6.79198 27.9261 6.19228C27.9252 6.19253 27.9243 6.19278 27.9235 6.19303ZM90.4638 1.8265C91.8382 1.80746 95.3346 1.6873 93.7 1.52356C92.6299 1.62453 91.5481 1.72575 90.4638 1.8265ZM2.83842 41.8366C3.4129 42.7965 4.09621 43.6057 5.082 44.5855C4.31451 43.5785 4.90062 44.1602 5.22527 44.432C5.71729 44.8458 4.62313 43.7485 4.63946 43.7351C4.77394 43.6478 5.4172 44.373 3.96065 42.7163C4.3637 43.1175 4.74259 43.4598 5.1599 43.8205C4.03446 42.6168 3.84972 42.1951 3.33419 41.3048C3.71122 42.2823 3.01963 41.1284 2.27268 40.1442C1.88999 39.6498 2.51538 41.3445 2.84089 41.84C2.84007 41.8389 2.83925 41.8377 2.83842 41.8366ZM24.8172 7.06928C24.5347 7.21439 24.2622 7.37724 23.9858 7.53193C23.6635 7.64596 23.3434 7.76091 23.0272 7.87766C22.9728 7.84853 22.9242 7.81517 22.8638 7.79009C22.4412 7.9256 22.6258 7.92772 22.504 7.97744C22.5039 7.97721 22.5038 7.97698 22.5037 7.97675C20.726 8.71188 20.0433 8.97985 18.584 9.44862C18.6393 9.57653 18.6946 9.70445 18.7498 9.83237C19.052 9.68736 19.3612 9.54276 19.671 9.40103C19.8075 9.26376 19.9391 9.12927 20.075 8.99381C20.4458 8.88906 20.8167 8.78754 21.1947 8.68718C21.4759 8.55065 21.8198 8.39197 22.0681 8.27317C23.6468 8.10724 20.2524 9.08048 20.2998 9.25772C20.306 9.345 23.6031 8.11125 24.0731 7.90244C24.141 7.86945 23.3142 7.83756 24.6041 7.56899C24.8149 7.52724 25.0497 8.10078 26.2246 7.20706C26.3945 7.08046 25.6126 6.90793 24.8172 7.06928ZM12.8961 12.0265C14.7979 11.293 8.31305 14.9312 11.1845 13.4521C10.5242 14.1172 10.6739 14.009 11.518 13.6465C11.5925 13.6143 11.1013 14.0003 11.1474 13.9784C11.8944 13.5811 12.7374 13.013 12.8316 13.1488C13.0229 13.0227 13.2115 12.9015 13.4009 12.7808C12.5015 13.1321 13.7443 12.2726 14.2021 11.8794C14.4095 11.6977 13.8588 11.9806 14.032 11.8259C14.0939 11.7676 14.8793 11.3871 14.8883 11.3234C14.8991 11.1807 14.3242 11.2882 13.4754 11.6633C13.4754 11.6632 13.4753 11.6631 13.4753 11.663C13.2779 11.7838 13.0891 11.9037 12.8961 12.0265ZM53.9875 1.91463C54.3349 2.11007 55.6931 2.05964 53.1097 2.38377C53.2429 2.41612 53.3799 2.44789 53.5134 2.48048C53.9578 2.43909 54.3653 2.40218 54.8084 2.3641C56.0775 1.60583 58.6054 2.18395 56.9932 1.82488C56.8171 1.78584 55.7754 1.91497 56.799 1.70682C56.7976 1.70679 56.7962 1.70677 56.7948 1.70674C55.3557 1.84911 55.1845 1.94212 53.9875 1.91463ZM44.4398 3.10088C41.2341 4.00199 49.0083 2.76979 47.6883 2.82862C47.5799 2.82135 44.2094 3.35263 44.4398 3.10088ZM70.9212 0.915066C69.4488 0.923843 69.3472 1.18065 69.5008 1.26822C69.6591 1.35623 70.6685 1.25093 70.8029 1.26426C71.2329 1.30684 70.3225 1.348 70.8807 1.40661C71.0608 1.42272 73.6525 1.49844 73.7768 1.49036C73.8582 1.48294 73.915 1.47335 73.9525 1.46216C74.0448 1.43451 74.019 1.39708 73.9525 1.35903C73.8254 1.28664 73.5503 1.21238 73.6597 1.19858C73.7532 1.18672 73.8518 1.17914 73.9525 1.17446C74.5167 1.14813 75.1417 1.21106 75.2928 1.11695C75.6427 0.901436 74.3801 1.09021 73.9525 1.12756C73.9111 1.1312 73.8775 1.13345 73.8542 1.13382C73.0544 1.14579 73.1244 1.01323 72.5282 0.989131C71.9333 0.965608 71.5469 1.01416 71.0263 1.00993C70.8532 1.00857 70.9962 0.915125 70.9212 0.915066ZM66.0294 1.54258C67.5696 1.30667 63.7879 1.21101 63.3395 1.2807C62.0252 1.46487 65.2972 1.64876 66.0294 1.54258ZM17.614 10.2682C18.846 9.55348 15.7719 10.8303 14.9849 11.339C15.1608 11.2989 17.1831 10.5037 17.614 10.2682ZM28.7543 5.96408C27.5127 6.35123 29.2466 6.1886 30.3204 5.91348C30.8775 5.5619 30.3216 5.7413 29.6161 5.91737C28.9218 6.09241 29.7331 5.66643 28.7543 5.96408ZM87.0225 1.03996C86.7362 1.04136 82.225 1.25667 84.8237 1.30047C85.0185 1.30441 88.1895 1.23836 88.4315 1.20331C88.9142 1.13367 87.7532 1.04063 87.0225 1.03996ZM34.7877 4.21162C34.1446 4.52685 33.4896 4.66917 34.1486 4.7384C34.1495 4.73821 34.1504 4.73801 34.1513 4.73782C32.4832 5.16715 32.2797 4.78861 31.9192 4.88068C30.6411 5.2198 31.9271 5.2214 31.1499 5.51237C32.9868 4.9744 32.5313 5.29411 33.938 4.99392C34.252 4.92617 35.5121 4.53855 35.6902 4.42698C35.865 4.31413 35.1554 4.22497 34.7877 4.21162ZM93.4218 0.914523C91.8988 0.866903 90.492 1.17228 92.6197 1.18976C93.6533 1.19847 94.3491 0.943525 93.4218 0.914523ZM34.3486 58.5122C34.1425 58.3816 33.9306 58.2492 33.71 58.1142C34.2534 58.2381 34.8019 58.3594 35.3542 58.4782C34.9155 58.3932 34.4788 58.3061 34.0421 58.2168C35.0525 58.505 35.4917 58.7551 34.3513 58.5129C34.3504 58.5127 34.3496 58.5125 34.3486 58.5122ZM71.6566 64.0988C72.1286 64.2016 73.0685 64.032 72.9523 64.0076C72.0748 63.8264 71.0031 63.9564 71.6566 64.0988ZM15.4151 10.5697C13.8229 11.3603 15.0785 11.1055 16.0507 10.6529C15.4257 10.8855 16.3223 10.1359 15.4151 10.5697ZM58.4289 62.8978C58.2748 62.8482 58.1196 62.7982 57.9469 62.746C58.4966 62.8554 58.5903 62.8953 58.4289 62.8978ZM86.2971 0.726167C86.0329 0.701456 84.0511 0.699253 83.7798 0.736165C83.2216 0.814365 84.7796 1.00078 85.6842 0.92872C85.7849 0.921015 86.5626 0.751186 86.293 0.726213C86.2944 0.726198 86.2958 0.726182 86.2971 0.726167ZM36.6391 59.2243C36.6369 59.2202 36.6393 59.2173 36.6455 59.2157C36.6428 59.2184 36.6426 59.2218 36.6391 59.2243ZM111.3 62.7661C111.288 62.7629 111.281 62.7587 111.281 62.7532C111.286 62.7574 111.296 62.761 111.3 62.7661ZM72.2664 0.499979C71.5969 0.15541 70.0764 0.35711 71.2816 0.516525C71.3487 0.524691 72.1046 0.499949 72.2664 0.499979Z" fill="#E96600"/>
</svg>
